<svg width="341" height="213" viewBox="0 0 341 213" fill="none" xmlns="http://www.w3.org/2000/svg">
<rect y="16.6868" width="304.286" height="196.313" rx="10" fill="#A3B995"/>
<rect x="9.81567" y="26.5024" width="137.419" height="176.682" rx="10" fill="white"/>
<path d="M90.9325 70.6729C82.4518 70.6729 78.8004 73.9022 78.4568 78.015C78.4372 78.0051 78.4176 77.9953 78.3979 77.9953C78.0446 73.8924 74.3833 70.6729 65.9222 70.6729C56.9998 70.6729 46.124 77.4358 46.124 78.6628C46.124 79.9486 56.9998 86.6528 65.9222 86.6528C71.1442 86.6528 74.5404 85.4258 76.4544 83.5216C75.5808 89.087 75.0115 97.6659 75.0115 103.683C75.0115 113.292 76.4741 112.762 78.2801 112.762C80.0862 112.762 81.5488 113.292 81.5488 103.683C81.5488 97.5187 80.95 88.6748 80.0372 83.1289C81.8727 85.2589 85.3572 86.6528 90.9325 86.6528C99.855 86.6528 110.731 79.9486 110.731 78.6628C110.731 77.3769 99.855 70.6729 90.9325 70.6729Z" fill="#359439"/>
<path d="M107.884 98.2939H48.9606C45.7901 98.2939 43.189 100.895 43.189 104.066V114.136C43.189 117.307 45.7901 119.908 48.9606 119.908H49.7164L54.212 150.847C54.5653 153.252 57.1567 155.166 59.9836 155.166H96.861C99.688 155.166 102.279 153.252 102.633 150.847L107.128 119.908H107.884C111.054 119.908 113.656 117.307 113.656 114.136V104.066C113.656 100.895 111.054 98.2939 107.884 98.2939Z" fill="#996625"/>
<rect x="157.051" y="26.5024" width="137.419" height="176.682" rx="10" fill="white"/>
<rect x="138.401" y="36.3179" width="27.4839" height="5.8894" rx="2.9447" fill="#CCCCCC"/>
<rect x="138.401" y="64.7832" width="27.4839" height="5.8894" rx="2.9447" fill="#CCCCCC"/>
<rect x="138.401" y="93.249" width="27.4839" height="5.8894" rx="2.9447" fill="#CCCCCC"/>
<rect x="138.401" y="121.714" width="27.4839" height="5.8894" rx="2.9447" fill="#CCCCCC"/>
<rect x="138.401" y="150.18" width="27.4839" height="5.8894" rx="2.9447" fill="#CCCCCC"/>
<rect x="138.401" y="178.645" width="27.4839" height="5.8894" rx="2.9447" fill="#CCCCCC"/>
<path d="M281 172.1C281 182.041 272.941 190.1 263 190.1M245 172.1C245 162.158 253.059 154.1 263 154.1" stroke="#56B6F2" stroke-width="4" stroke-linecap="round"/>
<path d="M270.401 153.902C270.43 153.903 270.458 153.906 270.486 153.908C270.519 153.911 270.552 153.914 270.585 153.919C270.62 153.924 270.654 153.931 270.688 153.938C270.717 153.943 270.745 153.949 270.772 153.956C270.804 153.964 270.835 153.971 270.866 153.981C270.9 153.991 270.933 154.002 270.967 154.014C270.995 154.024 271.024 154.035 271.052 154.046C271.082 154.058 271.111 154.072 271.141 154.085C271.172 154.1 271.203 154.114 271.233 154.13C271.261 154.145 271.289 154.161 271.316 154.177C271.344 154.193 271.371 154.21 271.398 154.228C271.429 154.248 271.458 154.269 271.487 154.29C271.503 154.302 271.52 154.312 271.535 154.324C271.544 154.331 271.552 154.34 271.561 154.347C271.589 154.37 271.617 154.394 271.645 154.419C271.668 154.44 271.691 154.462 271.713 154.485C271.735 154.507 271.757 154.529 271.778 154.553C271.803 154.58 271.827 154.608 271.851 154.637C271.858 154.646 271.867 154.654 271.874 154.663C272.83 155.882 274.253 158.276 275.427 160.724C276.021 161.964 276.576 163.268 276.986 164.494C277.384 165.683 277.7 166.954 277.7 168.074C277.7 169.559 277.478 171.398 276.325 172.965C275.199 174.496 273.427 175.451 271.021 175.819L270.53 175.884H270.516C270.468 175.889 270.42 175.892 270.371 175.894L270.326 175.898C270.317 175.898 270.309 175.897 270.3 175.897C270.291 175.897 270.283 175.898 270.274 175.898L270.229 175.894C270.18 175.892 270.131 175.889 270.082 175.884H270.07L269.58 175.819C267.174 175.451 265.402 174.496 264.275 172.965C263.123 171.398 262.9 169.559 262.9 168.074C262.9 166.954 263.217 165.683 263.614 164.494C264.025 163.268 264.579 161.964 265.174 160.724C266.348 158.276 267.77 155.882 268.727 154.663C268.734 154.654 268.742 154.644 268.75 154.635C268.77 154.61 268.791 154.586 268.812 154.563C268.839 154.533 268.866 154.504 268.894 154.477C268.909 154.461 268.925 154.447 268.941 154.432C268.975 154.4 269.01 154.37 269.046 154.341C269.052 154.336 269.059 154.33 269.065 154.324C269.078 154.315 269.09 154.306 269.103 154.297C269.135 154.273 269.168 154.249 269.202 154.227C269.229 154.209 269.255 154.193 269.282 154.177C269.309 154.161 269.337 154.146 269.364 154.131C269.396 154.114 269.429 154.098 269.462 154.083C269.49 154.07 269.518 154.058 269.546 154.046C269.575 154.034 269.605 154.023 269.635 154.013C269.666 154.002 269.698 153.991 269.73 153.982C269.762 153.972 269.794 153.964 269.826 153.956C269.855 153.949 269.884 153.942 269.913 153.937C269.947 153.93 269.98 153.925 270.014 153.92C270.047 153.915 270.08 153.911 270.113 153.908C270.142 153.906 270.17 153.903 270.198 153.902C270.232 153.9 270.266 153.901 270.3 153.901C270.334 153.901 270.368 153.9 270.401 153.902ZM270.3 159.569C269.804 160.429 269.276 161.42 268.78 162.453C268.233 163.595 267.75 164.741 267.407 165.764C267.052 166.825 266.9 167.606 266.9 168.074C266.9 169.237 267.094 170.045 267.498 170.595C267.832 171.049 268.525 171.614 270.186 171.865L270.3 171.88L270.415 171.865C272.076 171.614 272.768 171.049 273.103 170.595C273.507 170.045 273.7 169.237 273.7 168.074C273.7 167.606 273.548 166.825 273.193 165.764C272.851 164.741 272.368 163.595 271.82 162.453C271.325 161.42 270.796 160.429 270.3 159.569Z" fill="#5AA7D7"/>
<path d="M256.351 162.802C256.379 162.803 256.408 162.806 256.437 162.809C256.469 162.812 256.501 162.815 256.533 162.819C256.569 162.825 256.604 162.831 256.64 162.838C256.665 162.843 256.691 162.849 256.717 162.855C256.756 162.864 256.794 162.875 256.832 162.887C256.855 162.894 256.877 162.901 256.899 162.908C256.935 162.921 256.971 162.934 257.006 162.948C257.032 162.959 257.059 162.971 257.085 162.983C257.119 162.998 257.153 163.015 257.187 163.032C257.216 163.048 257.244 163.064 257.272 163.081C257.295 163.095 257.318 163.109 257.34 163.123C257.377 163.148 257.414 163.173 257.45 163.2C257.461 163.209 257.473 163.216 257.484 163.225C257.491 163.23 257.497 163.236 257.503 163.241C257.537 163.269 257.569 163.298 257.602 163.327C257.622 163.346 257.642 163.364 257.661 163.383C257.684 163.406 257.706 163.429 257.728 163.453C257.753 163.481 257.777 163.509 257.8 163.537C257.807 163.546 257.816 163.554 257.823 163.564C258.987 165.047 260.748 168.003 262.207 171.047C262.944 172.585 263.629 174.195 264.134 175.703C264.626 177.173 265 178.7 265 180.019C265 181.834 264.726 184.004 263.378 185.836C261.982 187.734 259.708 188.91 256.48 189.284C256.476 189.285 256.471 189.284 256.467 189.284C256.422 189.289 256.376 189.292 256.33 189.294C256.303 189.295 256.277 189.297 256.25 189.297C256.223 189.297 256.196 189.295 256.169 189.294C256.123 189.292 256.077 189.289 256.032 189.284C256.028 189.284 256.024 189.285 256.02 189.284C252.792 188.91 250.518 187.734 249.122 185.836C247.774 184.004 247.5 181.834 247.5 180.019C247.5 178.7 247.874 177.173 248.366 175.703C248.871 174.195 249.556 172.585 250.293 171.047C251.752 168.003 253.513 165.047 254.677 163.564C254.684 163.555 254.692 163.546 254.699 163.537C254.722 163.509 254.746 163.481 254.771 163.453C254.785 163.439 254.798 163.424 254.812 163.409L254.861 163.36C254.873 163.348 254.886 163.338 254.897 163.327C254.93 163.298 254.962 163.269 254.996 163.241C255.003 163.236 255.009 163.23 255.016 163.225C255.026 163.216 255.038 163.209 255.049 163.2C255.085 163.173 255.122 163.148 255.16 163.123C255.182 163.109 255.204 163.095 255.227 163.081C255.255 163.064 255.283 163.048 255.312 163.032C255.346 163.015 255.38 162.998 255.414 162.983C255.44 162.971 255.467 162.959 255.493 162.948C255.528 162.934 255.564 162.921 255.6 162.908C255.622 162.901 255.644 162.894 255.667 162.887C255.705 162.875 255.744 162.864 255.782 162.855C255.808 162.849 255.834 162.843 255.859 162.838C255.895 162.831 255.93 162.825 255.966 162.819C255.998 162.815 256.03 162.812 256.062 162.809C256.091 162.806 256.12 162.803 256.148 162.802C256.182 162.8 256.216 162.801 256.25 162.801C256.284 162.801 256.317 162.8 256.351 162.802ZM256.25 168.405C255.503 169.65 254.667 171.176 253.899 172.777C253.209 174.216 252.596 175.667 252.159 176.972C251.71 178.314 251.5 179.352 251.5 180.019C251.5 181.512 251.746 182.651 252.345 183.466C252.861 184.168 253.862 184.922 256.03 185.251L256.25 185.28L256.47 185.251C258.638 184.922 259.639 184.168 260.155 183.466C260.754 182.651 261 181.512 261 180.019C261 179.352 260.79 178.314 260.341 176.972C259.904 175.667 259.291 174.216 258.601 172.777C257.833 171.176 256.997 169.65 256.25 168.405Z" fill="#5AA7D7"/>
<path d="M177.418 46.1335H274.593" stroke="#999999" stroke-width="2" stroke-linecap="round"/>
<path d="M177.418 64.7832H274.593" stroke="#999999" stroke-width="2" stroke-linecap="round"/>
<path d="M177.418 83.4331H274.593" stroke="#999999" stroke-width="2" stroke-linecap="round"/>
<path d="M177.418 103.064H274.593" stroke="#999999" stroke-width="2" stroke-linecap="round"/>
<path d="M177.418 121.714H237.294" stroke="#999999" stroke-width="2" stroke-linecap="round"/>
<path d="M338.216 15.558L321.95 1.61735C320.908 0.724118 319.337 0.842152 318.44 1.881L314.506 6.44202C313.61 7.48087 313.728 9.04714 314.77 9.94038L331.037 23.881C332.079 24.7743 333.65 24.6562 334.546 23.6174L338.481 19.0564C339.377 18.0175 339.259 16.4513 338.216 15.558Z" fill="#601E1E"/>
<path d="M334.351 23.8233L314.31 6.64795L251.128 79.8905L271.169 97.0659L334.351 23.8233Z" fill="#FC8A5E"/>
<path d="M271.198 97.0537L255.847 101.269L248.336 103.354L249.261 95.6267L251.156 79.8862L271.198 97.0537Z" fill="#FFF7D7"/>
<path d="M255.847 101.269L248.336 103.355L249.261 95.6272L255.847 101.269Z" fill="black"/>
</svg>
