<svg width="659" height="413" viewBox="0 0 659 413" fill="none" xmlns="http://www.w3.org/2000/svg">
<rect y="32.333" width="589.598" height="380.386" rx="10" fill="#A3B995"/>
<rect x="19.019" y="51.3521" width="266.27" height="342.347" rx="10" fill="white"/>
<path d="M176.195 136.939C159.762 136.939 152.687 143.197 152.022 151.166C151.984 151.147 151.946 151.128 151.908 151.128C151.223 143.178 144.129 136.939 127.734 136.939C110.445 136.939 89.3721 150.044 89.3721 152.421C89.3721 154.913 110.445 167.903 127.734 167.903C137.852 167.903 144.433 165.525 148.142 161.836C146.449 172.62 145.346 189.242 145.346 200.901C145.346 219.521 148.18 218.494 151.679 218.494C155.179 218.494 158.013 219.521 158.013 200.901C158.013 188.957 156.853 171.821 155.084 161.075C158.64 165.202 165.392 167.903 176.195 167.903C193.484 167.903 214.557 154.913 214.557 152.421C214.557 149.93 193.484 136.939 176.195 136.939Z" fill="#359439"/>
<path d="M209.041 190.458H94.8684C88.7252 190.458 83.6851 195.499 83.6851 201.642V221.156C83.6851 227.299 88.7252 232.339 94.8684 232.339H96.3329L105.044 292.288C105.728 296.948 110.75 300.656 116.227 300.656H187.683C193.16 300.656 198.181 296.948 198.866 292.288L207.577 232.339H209.041C215.184 232.339 220.225 227.299 220.225 221.156V201.642C220.225 195.499 215.184 190.458 209.041 190.458Z" fill="#996625"/>
<rect x="304.308" y="51.3521" width="266.27" height="342.347" rx="10" fill="white"/>
<path d="M543 339.15C543 354.062 530.912 366.15 516 366.15M489 339.15C489 324.238 501.088 312.15 516 312.15" stroke="#56B6F2" stroke-width="6" stroke-linecap="round"/>
<path d="M527.088 311.853C527.144 311.856 527.199 311.859 527.255 311.865C527.289 311.868 527.323 311.873 527.356 311.877C527.421 311.886 527.486 311.897 527.55 311.91C527.579 311.916 527.607 311.922 527.636 311.928C527.701 311.943 527.765 311.961 527.829 311.981C527.859 311.99 527.889 312 527.919 312.01C527.976 312.03 528.033 312.051 528.09 312.074C528.127 312.089 528.164 312.106 528.2 312.123C528.41 312.219 528.612 312.338 528.802 312.487C528.827 312.507 528.852 312.529 528.877 312.549C528.884 312.556 528.892 312.562 528.899 312.568C528.922 312.587 528.945 312.607 528.967 312.627C528.982 312.641 528.998 312.654 529.013 312.668C529.107 312.758 529.193 312.853 529.273 312.952C529.285 312.966 529.298 312.981 529.31 312.996C530.744 314.824 532.879 318.414 534.64 322.086C535.531 323.946 536.364 325.903 536.979 327.743C537.576 329.526 538.05 331.432 538.05 333.112C538.05 335.338 537.716 338.097 535.986 340.449C534.184 342.898 531.28 344.366 527.295 344.828C527.282 344.829 527.269 344.829 527.256 344.831C527.224 344.834 527.192 344.838 527.16 344.84C527.142 344.842 527.124 344.842 527.105 344.843C527.079 344.845 527.053 344.846 527.027 344.846C527.001 344.847 526.975 344.847 526.949 344.847C526.924 344.847 526.898 344.847 526.872 344.846C526.845 344.846 526.819 344.845 526.792 344.843C526.774 344.842 526.757 344.842 526.739 344.84C526.708 344.838 526.676 344.834 526.645 344.831C526.631 344.829 526.618 344.829 526.604 344.828C522.619 344.366 519.715 342.898 517.913 340.449C516.184 338.097 515.85 335.338 515.85 333.112C515.85 331.432 516.323 329.526 516.92 327.743C517.536 325.903 518.368 323.946 519.26 322.086C521.021 318.414 523.155 314.824 524.59 312.996C524.606 312.975 524.622 312.955 524.639 312.935C524.716 312.842 524.799 312.752 524.89 312.667C524.899 312.658 524.909 312.65 524.918 312.641C524.976 312.588 525.035 312.536 525.098 312.487C525.144 312.45 525.192 312.415 525.24 312.381C525.246 312.377 525.253 312.374 525.259 312.37C525.4 312.273 525.548 312.192 525.699 312.123C525.735 312.106 525.771 312.091 525.807 312.076C525.863 312.052 525.921 312.031 525.979 312.011C526.01 312 526.041 311.99 526.073 311.98C526.135 311.961 526.197 311.945 526.259 311.93C526.29 311.923 526.321 311.915 526.353 311.909C526.416 311.896 526.479 311.886 526.543 311.877C526.576 311.873 526.609 311.868 526.643 311.865C526.699 311.859 526.754 311.856 526.811 311.853C526.857 311.851 526.903 311.85 526.949 311.85C526.996 311.85 527.042 311.851 527.088 311.853ZM526.949 320.36C526.206 321.65 525.412 323.134 524.67 324.681C523.848 326.394 523.123 328.112 522.609 329.647C522.077 331.238 521.85 332.41 521.85 333.112C521.85 334.856 522.139 336.068 522.746 336.893C523.259 337.59 524.334 338.457 526.949 338.821C529.566 338.457 530.641 337.59 531.153 336.893C531.76 336.068 532.05 334.856 532.05 333.112C532.05 332.41 531.822 331.238 531.29 329.647C530.776 328.112 530.051 326.394 529.229 324.681C528.487 323.134 527.693 321.65 526.949 320.36Z" fill="#5AA7D7"/>
<path d="M506.014 325.204C506.069 325.206 506.124 325.21 506.179 325.215C506.214 325.219 506.248 325.223 506.283 325.228C506.345 325.236 506.406 325.247 506.468 325.259C506.502 325.266 506.536 325.274 506.57 325.282C506.629 325.296 506.687 325.311 506.745 325.329C506.781 325.34 506.817 325.352 506.853 325.364C506.906 325.382 506.959 325.402 507.012 325.423C507.053 325.44 507.093 325.459 507.133 325.477C507.192 325.505 507.252 325.532 507.31 325.564C507.319 325.569 507.329 325.574 507.339 325.58C507.412 325.62 507.483 325.665 507.553 325.712C507.565 325.721 507.578 325.729 507.591 325.738C507.637 325.77 507.682 325.803 507.727 325.837C507.748 325.855 507.77 325.873 507.791 325.89C507.806 325.903 507.821 325.915 507.836 325.928C507.847 325.938 507.857 325.947 507.868 325.957C507.931 326.013 507.992 326.071 508.051 326.133C508.099 326.184 508.144 326.237 508.188 326.291C508.204 326.309 508.22 326.327 508.235 326.346C509.981 328.572 512.621 333.006 514.811 337.572C515.917 339.878 516.944 342.293 517.701 344.555C518.439 346.76 519 349.051 519 351.029C519 353.752 518.588 357.006 516.566 359.754C514.538 362.512 511.274 364.255 506.67 364.872L506.283 364.919C506.271 364.921 506.258 364.923 506.246 364.924L506.221 364.928L506.066 364.942C506.055 364.943 506.043 364.941 506.031 364.942C505.979 364.945 505.927 364.945 505.875 364.945C505.822 364.945 505.77 364.945 505.718 364.942C505.706 364.941 505.695 364.943 505.684 364.942L505.529 364.928L505.503 364.924C505.491 364.923 505.478 364.921 505.466 364.919L505.08 364.872C500.476 364.255 497.212 362.512 495.184 359.754C493.162 357.006 492.75 353.752 492.75 351.029C492.75 349.051 493.311 346.76 494.049 344.555C494.806 342.293 495.833 339.878 496.939 337.572C499.129 333.006 501.769 328.572 503.515 326.346C503.53 326.327 503.545 326.309 503.561 326.291C503.605 326.237 503.65 326.184 503.698 326.133C503.757 326.071 503.818 326.013 503.881 325.957C503.892 325.947 503.902 325.938 503.913 325.928C503.928 325.915 503.943 325.903 503.958 325.89C503.979 325.872 504.001 325.855 504.023 325.837C504.068 325.803 504.113 325.77 504.158 325.738C504.171 325.729 504.184 325.721 504.196 325.712C504.266 325.665 504.337 325.62 504.41 325.58C504.42 325.574 504.43 325.569 504.439 325.564C504.497 325.532 504.557 325.505 504.616 325.477C504.656 325.459 504.696 325.44 504.737 325.423C504.79 325.402 504.843 325.382 504.896 325.364C504.932 325.351 504.968 325.34 505.004 325.329C505.062 325.311 505.12 325.296 505.179 325.282C505.213 325.274 505.247 325.266 505.281 325.259C505.343 325.247 505.404 325.236 505.466 325.228C505.501 325.223 505.535 325.219 505.57 325.215C505.625 325.21 505.68 325.206 505.735 325.204C505.782 325.201 505.828 325.201 505.875 325.201C505.921 325.201 505.967 325.201 506.014 325.204ZM505.875 333.602C504.754 335.469 503.502 337.762 502.35 340.166C501.314 342.326 500.394 344.503 499.739 346.459C499.066 348.473 498.75 350.029 498.75 351.029C498.75 353.269 499.118 354.978 500.017 356.2C500.792 357.253 502.292 358.384 505.546 358.877L505.875 358.92L506.204 358.877C509.458 358.384 510.958 357.253 511.733 356.2C512.632 354.978 513 353.269 513 351.029C513 350.029 512.684 348.473 512.011 346.459C511.356 344.503 510.436 342.326 509.4 340.166C508.248 337.762 506.996 335.469 505.875 333.602Z" fill="#5AA7D7"/>
<rect x="268.172" y="70.3716" width="53.254" height="11.4116" rx="5.70579" fill="#CCCCCC"/>
<rect x="268.172" y="125.527" width="53.254" height="11.4116" rx="5.70579" fill="#CCCCCC"/>
<rect x="268.172" y="180.684" width="53.254" height="11.4116" rx="5.70579" fill="#CCCCCC"/>
<rect x="268.172" y="235.839" width="53.254" height="11.4116" rx="5.70579" fill="#CCCCCC"/>
<rect x="268.172" y="290.995" width="53.254" height="11.4116" rx="5.70579" fill="#CCCCCC"/>
<rect x="268.172" y="346.151" width="53.254" height="11.4116" rx="5.70579" fill="#CCCCCC"/>
<path d="M343.774 89.3901H532.065" stroke="#999999" stroke-width="2" stroke-linecap="round"/>
<path d="M343.774 125.527H532.065" stroke="#999999" stroke-width="2" stroke-linecap="round"/>
<path d="M343.774 161.664H532.065" stroke="#999999" stroke-width="2" stroke-linecap="round"/>
<path d="M343.774 199.703H532.065" stroke="#999999" stroke-width="2" stroke-linecap="round"/>
<path d="M343.774 235.839H459.791" stroke="#999999" stroke-width="2" stroke-linecap="round"/>
<path d="M655.343 30.1459L623.825 3.13386C621.806 1.40308 618.761 1.63179 617.025 3.64471L609.401 12.4823C607.665 14.4953 607.894 17.5302 609.914 19.2609L641.432 46.273C643.451 48.0038 646.496 47.775 648.232 45.7621L655.856 36.9245C657.592 34.9116 657.363 31.8767 655.343 30.1459Z" fill="#601E1E"/>
<path d="M647.853 46.1616L609.022 12.8818L486.598 154.8L525.429 188.08L647.853 46.1616Z" fill="#FC8A5E"/>
<path d="M525.486 188.056L495.741 196.223L481.188 200.264L482.981 185.291L486.651 154.791L525.486 188.056Z" fill="#FFF7D7"/>
<path d="M495.741 196.223L481.188 200.264L482.981 185.291L495.741 196.223Z" fill="black"/>
</svg>
