<svg width="18" height="19" viewBox="0 0 18 19" fill="none" xmlns="http://www.w3.org/2000/svg">
<g id="logo googleg 48dp">
<path id="Shape" fill-rule="evenodd" clip-rule="evenodd" d="M17.9997 9.39211C17.9997 8.74091 17.9413 8.11477 17.8327 7.51367H9.18359V11.066H14.126C13.9131 12.2139 13.2661 13.1865 12.2934 13.8377V16.1419H15.2614C16.9979 14.5432 17.9997 12.1889 17.9997 9.39211Z" fill="#4285F4"/>
<path id="Shape_2" fill-rule="evenodd" clip-rule="evenodd" d="M9.18323 18.3673C11.6628 18.3673 13.7416 17.545 15.261 16.1424L12.2931 13.8382C11.4708 14.3892 10.4188 14.7148 9.18323 14.7148C6.79136 14.7148 4.76683 13.0993 4.04467 10.9287H0.976562V13.3081C2.48766 16.3094 5.59334 18.3673 9.18323 18.3673Z" fill="#34A853"/>
<path id="Shape_3" fill-rule="evenodd" clip-rule="evenodd" d="M4.0449 10.9296C3.86123 10.3786 3.75687 9.79003 3.75687 9.18475C3.75687 8.57948 3.86123 7.9909 4.0449 7.4399V5.06055H0.976786C0.354815 6.30031 0 7.70288 0 9.18475C0 10.6666 0.354815 12.0692 0.976786 13.309L4.0449 10.9296Z" fill="#FBBC05"/>
<path id="Shape_4" fill-rule="evenodd" clip-rule="evenodd" d="M9.18323 3.65251C10.5315 3.65251 11.7421 4.11586 12.6938 5.02585L15.3278 2.39187C13.7374 0.909997 11.6586 0 9.18323 0C5.59334 0 2.48766 2.05793 0.976562 5.05925L4.04467 7.4386C4.76683 5.26796 6.79136 3.65251 9.18323 3.65251Z" fill="#EA4335"/>
</g>
</svg>
