<svg width="21" height="20" viewBox="0 0 21 20" fill="none" xmlns="http://www.w3.org/2000/svg">
<g id="Person">
<path id="Vector" d="M10.2199 10.0007C9.30322 10.0007 8.5185 9.67426 7.86572 9.02148C7.21294 8.36871 6.88656 7.58398 6.88656 6.66732C6.88656 5.75065 7.21294 4.96593 7.86572 4.31315C8.5185 3.66037 9.30322 3.33398 10.2199 3.33398C11.1366 3.33398 11.9213 3.66037 12.5741 4.31315C13.2268 4.96593 13.5532 5.75065 13.5532 6.66732C13.5532 7.58398 13.2268 8.36871 12.5741 9.02148C11.9213 9.67426 11.1366 10.0007 10.2199 10.0007ZM3.55322 15.0007V14.334C3.55322 13.8618 3.67489 13.4279 3.91822 13.0323C4.16156 12.6368 4.48433 12.3345 4.88656 12.1257C5.74767 11.6951 6.62267 11.3723 7.51156 11.1573C8.40044 10.9423 9.30322 10.8345 10.2199 10.834C11.1366 10.8334 12.0393 10.9412 12.9282 11.1573C13.8171 11.3734 14.6921 11.6962 15.5532 12.1257C15.956 12.334 16.2791 12.6362 16.5224 13.0323C16.7657 13.4284 16.8871 13.8623 16.8866 14.334V15.0007C16.8866 15.459 16.7235 15.8515 16.3974 16.1782C16.0713 16.5048 15.6788 16.6679 15.2199 16.6673H5.21989C4.76156 16.6673 4.36933 16.5043 4.04322 16.1782C3.71711 15.852 3.55378 15.4595 3.55322 15.0007Z" fill="#666666"/>
</g>
</svg>
