<svg xmlns="http://www.w3.org/2000/svg" width="20" height="20" viewBox="0 0 20 20" fill="none">
  <path d="M10 10.0007C9.08337 10.0007 8.29865 9.67426 7.64587 9.02148C6.9931 8.36871 6.66671 7.58398 6.66671 6.66732C6.66671 5.75065 6.9931 4.96593 7.64587 4.31315C8.29865 3.66037 9.08337 3.33398 10 3.33398C10.9167 3.33398 11.7014 3.66037 12.3542 4.31315C13.007 4.96593 13.3334 5.75065 13.3334 6.66732C13.3334 7.58398 13.007 8.36871 12.3542 9.02148C11.7014 9.67426 10.9167 10.0007 10 10.0007ZM3.33337 15.0007V14.334C3.33337 13.8618 3.45504 13.4279 3.69837 13.0323C3.94171 12.6368 4.26449 12.3345 4.66671 12.1257C5.52782 11.6951 6.40282 11.3723 7.29171 11.1573C8.1806 10.9423 9.08337 10.8345 10 10.834C10.9167 10.8334 11.8195 10.9412 12.7084 11.1573C13.5973 11.3734 14.4723 11.6962 15.3334 12.1257C15.7362 12.334 16.0592 12.6362 16.3025 13.0323C16.5459 13.4284 16.6673 13.8623 16.6667 14.334V15.0007C16.6667 15.459 16.5037 15.8515 16.1775 16.1782C15.8514 16.5048 15.4589 16.6679 15 16.6673H5.00004C4.54171 16.6673 4.14948 16.5043 3.82337 16.1782C3.49726 15.852 3.33393 15.4595 3.33337 15.0007Z" fill="#666666"/>
</svg>