<svg width="21" height="21" viewBox="0 0 21 21" fill="none" xmlns="http://www.w3.org/2000/svg">
<path d="M12.6842 3.4171L6.20674 10.0621C6.09297 10.1788 6.0293 10.3354 6.0293 10.4984C6.0293 10.6613 6.09297 10.8179 6.20674 10.9346L12.6842 17.5821C12.7372 17.6365 12.8006 17.6798 12.8706 17.7093C12.9406 17.7389 13.0158 17.7541 13.0917 17.7541C13.1677 17.7541 13.2429 17.7389 13.3129 17.7093C13.3829 17.6798 13.4462 17.6365 13.4992 17.5821C13.6083 17.4705 13.6693 17.3206 13.6693 17.1646C13.6693 17.0086 13.6083 16.8587 13.4992 16.7471L7.40799 10.4984L13.4992 4.25085C13.6079 4.13929 13.6687 3.98971 13.6687 3.83398C13.6687 3.67824 13.6079 3.52867 13.4992 3.4171C13.4462 3.36268 13.3829 3.31941 13.3129 3.28988C13.2429 3.26034 13.1677 3.24512 13.0917 3.24512C13.0158 3.24512 12.9406 3.26034 12.8706 3.28988C12.8006 3.31941 12.7372 3.36268 12.6842 3.4171Z" fill="#666666"/>
</svg>
