<svg width="21" height="21" viewBox="0 0 21 21" fill="none" xmlns="http://www.w3.org/2000/svg">
<path d="M8.87826 3.4171L15.3558 10.0621C15.4695 10.1788 15.5332 10.3354 15.5332 10.4984C15.5332 10.6613 15.4695 10.8179 15.3558 10.9346L8.87826 17.5821C8.82527 17.6365 8.76191 17.6798 8.69192 17.7093C8.62193 17.7389 8.54673 17.7541 8.47077 17.7541C8.3948 17.7541 8.3196 17.7389 8.24961 17.7093C8.17962 17.6798 8.11626 17.6365 8.06326 17.5821C7.95423 17.4705 7.89318 17.3206 7.89318 17.1646C7.89318 17.0086 7.95423 16.8587 8.06326 16.7471L14.1545 10.4984L8.06326 4.25085C7.9546 4.13929 7.89379 3.98971 7.89379 3.83398C7.89379 3.67824 7.9546 3.52867 8.06326 3.4171C8.11626 3.36268 8.17962 3.31941 8.24961 3.28988C8.3196 3.26034 8.3948 3.24512 8.47077 3.24512C8.54673 3.24512 8.62193 3.26034 8.69192 3.28988C8.76191 3.31941 8.82527 3.36268 8.87826 3.4171Z" fill="#666666"/>
</svg>
