<svg width="20" height="20" viewBox="0 0 20 20" fill="none" xmlns="http://www.w3.org/2000/svg">
<g clip-path="url(#clip0_450_1347)">
<path d="M10.4088 6.16092L9.29551 7.29095C10.4004 7.38302 11.1202 7.70947 11.6644 8.25356C13.1292 9.71842 13.1208 11.7943 11.6727 13.2424L8.93558 15.9712C7.47907 17.4277 5.41992 17.4361 3.95508 15.9796C2.49024 14.5063 2.49861 12.4472 3.95508 10.9907L5.5957 9.35013C5.36133 8.82277 5.30274 8.19499 5.39481 7.65088L2.93387 10.1034C0.933316 12.1123 0.916576 14.9583 2.94224 16.9841C4.97629 19.0181 7.82227 19.0013 9.82279 17.0008L12.6856 14.1297C14.6945 12.1208 14.7112 9.27477 12.6772 7.24909C12.1499 6.72175 11.4802 6.34508 10.4088 6.16092ZM10.1995 13.0583L11.3128 11.9282C10.2079 11.8445 9.48801 11.5097 8.94394 10.9656C7.47907 9.50077 7.48744 7.42488 8.93558 5.97677L11.6644 3.24798C13.1292 1.79151 15.1884 1.78314 16.6532 3.24798C18.118 4.71282 18.1013 6.78034 16.6532 8.22842L15.0126 9.86906C15.2469 10.4048 15.2972 11.0242 15.2134 11.5683L17.6744 9.1157C19.6749 7.10679 19.6917 4.26919 17.666 2.23514C15.632 0.201104 12.786 0.217845 10.7771 2.22677L7.92272 5.08949C5.91379 7.09842 5.89704 9.94442 7.93109 11.9701C8.45843 12.4974 9.12808 12.8741 10.1995 13.0583Z" fill="#777777"/>
</g>
<defs>
<clipPath id="clip0_450_1347">
<rect width="17.7518" height="17.9318" fill="white" transform="translate(1.42847 0.713867)"/>
</clipPath>
</defs>
</svg>
