<svg width="24" height="24" viewBox="0 0 24 24" fill="none" xmlns="http://www.w3.org/2000/svg">
<g clip-path="url(#clip0_130_5368)">
<path d="M4.54556 19.9667C4.89713 20.3082 5.47971 20.3082 5.82123 19.9667L12.2498 13.5381L18.6784 19.9667C19.0199 20.3082 19.6126 20.3183 19.954 19.9667C20.2955 19.6151 20.2955 19.0426 19.954 18.7011L13.5255 12.2624L19.954 5.83386C20.2955 5.49234 20.3056 4.90975 19.954 4.56823C19.6024 4.21667 19.0199 4.21667 18.6784 4.56823L12.2498 10.9968L5.82123 4.56823C5.47971 4.21667 4.88708 4.20663 4.54556 4.56823C4.20405 4.9198 4.20405 5.49234 4.54556 5.83386L10.9741 12.2624L4.54556 18.7011C4.20405 19.0426 4.194 19.6252 4.54556 19.9667Z" fill="#666666"/>
</g>
<defs>
<clipPath id="clip0_130_5368">
<rect width="15.9283" height="15.9384" fill="white" transform="translate(4.28564 4.28613)"/>
</clipPath>
</defs>
</svg>
