<svg width="25" height="24" viewBox="0 0 25 24" fill="none" xmlns="http://www.w3.org/2000/svg">
<path d="M7.78125 21C7.23125 21 6.76059 20.8043 6.36925 20.413C5.97792 20.0217 5.78192 19.5507 5.78125 19V6C5.49792 6 5.26059 5.904 5.06925 5.712C4.87792 5.52 4.78192 5.28267 4.78125 5C4.78059 4.71733 4.87659 4.48 5.06925 4.288C5.26192 4.096 5.49925 4 5.78125 4H9.78125C9.78125 3.71667 9.87725 3.47933 10.0693 3.288C10.2613 3.09667 10.4986 3.00067 10.7813 3H14.7813C15.0646 3 15.3023 3.096 15.4943 3.288C15.6863 3.48 15.7819 3.71733 15.7813 4H19.7813C20.0646 4 20.3023 4.096 20.4943 4.288C20.6863 4.48 20.7819 4.71733 20.7813 5C20.7806 5.28267 20.6846 5.52033 20.4933 5.713C20.3019 5.90567 20.0646 6.00133 19.7813 6V19C19.7813 19.55 19.5856 20.021 19.1943 20.413C18.8029 20.805 18.3319 21.0007 17.7813 21H7.78125ZM17.7813 6H7.78125V19H17.7813V6ZM10.7813 17C11.0646 17 11.3023 16.904 11.4943 16.712C11.6863 16.52 11.7819 16.2827 11.7813 16V9C11.7813 8.71667 11.6853 8.47933 11.4933 8.288C11.3013 8.09667 11.0639 8.00067 10.7813 8C10.4986 7.99933 10.2613 8.09533 10.0693 8.288C9.87725 8.48067 9.78125 8.718 9.78125 9V16C9.78125 16.2833 9.87725 16.521 10.0693 16.713C10.2613 16.905 10.4986 17.0007 10.7813 17ZM14.7813 17C15.0646 17 15.3023 16.904 15.4943 16.712C15.6863 16.52 15.7819 16.2827 15.7813 16V9C15.7813 8.71667 15.6853 8.47933 15.4933 8.288C15.3013 8.09667 15.0639 8.00067 14.7813 8C14.4986 7.99933 14.2613 8.09533 14.0693 8.288C13.8773 8.48067 13.7813 8.718 13.7813 9V16C13.7813 16.2833 13.8773 16.521 14.0693 16.713C14.2613 16.905 14.4986 17.0007 14.7813 17Z" fill="#666666"/>
</svg>
