<svg width="18" height="18" viewBox="0 0 18 18" fill="none" xmlns="http://www.w3.org/2000/svg">
<g clip-path="url(#clip0_590_1948)">
<path d="M0 6.31025C0 10.3524 3.23565 14.3282 8.34747 17.7441C8.53781 17.8674 8.80966 18.0003 9 18.0003C9.19034 18.0003 9.46227 17.8674 9.66166 17.7441C14.7643 14.3282 18 10.3524 18 6.31025C18 2.95126 15.7976 0.579102 12.861 0.579102C11.1843 0.579102 9.82477 1.4141 9 2.69507C8.19341 1.42359 6.81572 0.579102 5.13898 0.579102C2.20242 0.579102 0 2.95126 0 6.31025ZM1.45922 6.31025C1.45922 3.78627 3.01813 2.10677 5.12085 2.10677C6.82479 2.10677 7.8036 3.21695 8.38367 4.16581C8.62837 4.54536 8.78252 4.64974 9 4.64974C9.21756 4.64974 9.35353 4.53587 9.61633 4.16581C10.2417 3.23592 11.1843 2.10677 12.8791 2.10677C14.9819 2.10677 16.5408 3.78627 16.5408 6.31025C16.5408 9.83999 12.9788 13.645 9.19034 16.2828C9.09969 16.3492 9.03627 16.3967 9 16.3967C8.96373 16.3967 8.90031 16.3492 8.81871 16.2828C5.02116 13.645 1.45922 9.83999 1.45922 6.31025Z" fill="white"/>
</g>
<defs>
<clipPath id="clip0_590_1948">
<rect width="18" height="18" fill="white"/>
</clipPath>
</defs>
</svg>
