<svg width="18" height="18" viewBox="0 0 18 18" fill="none" xmlns="http://www.w3.org/2000/svg">
<g clip-path="url(#clip0_334_545)">
<path d="M0 6.26361C0 9.97605 3.23565 13.6274 8.34747 16.7647C8.53781 16.878 8.80966 17 9 17C9.19034 17 9.46227 16.878 9.66166 16.7647C14.7643 13.6274 18 9.97605 18 6.26361C18 3.17865 15.7976 1 12.861 1C11.1843 1 9.82477 1.76688 9 2.94335C8.19341 1.7756 6.81572 1 5.13898 1C2.20242 1 0 3.17865 0 6.26361ZM1.45922 6.26361C1.45922 3.94553 3.01813 2.40305 5.12085 2.40305C6.82479 2.40305 7.8036 3.42266 8.38367 4.29411C8.62837 4.64269 8.78252 4.73856 9 4.73856C9.21756 4.73856 9.35353 4.63398 9.61633 4.29411C10.2417 3.44008 11.1843 2.40305 12.8791 2.40305C14.9819 2.40305 16.5408 3.94553 16.5408 6.26361C16.5408 9.5054 12.9788 13 9.19034 15.4227C9.09969 15.4836 9.03627 15.5272 9 15.5272C8.96373 15.5272 8.90031 15.4836 8.81871 15.4227C5.02116 13 1.45922 9.5054 1.45922 6.26361Z" fill="#666666"/>
</g>
<defs>
<clipPath id="clip0_334_545">
<rect width="18" height="18" fill="white"/>
</clipPath>
</defs>
</svg>
