<svg xmlns="http://www.w3.org/2000/svg" width="16" height="20" viewBox="0 0 16 20" fill="none">
  <g clip-path="url(#clip0_208_2532)">
    <path d="M6.42355 17.3845H13.5352C14.9213 17.3845 15.611 16.6814 15.611 15.2885V9.20816C15.611 8.34433 15.5106 7.9693 14.9749 7.42021L11.2852 3.6635C10.7762 3.14118 10.3544 3.02734 9.60435 3.02734H6.42355C5.04408 3.02734 4.34766 3.73716 4.34766 5.13002V15.2885C4.34766 16.688 5.03739 17.3845 6.42355 17.3845ZM6.47041 16.3064C5.78069 16.3064 5.42578 15.938 5.42578 15.2684V5.15011C5.42578 4.48716 5.78069 4.10546 6.4771 4.10546H9.45704V7.9961C9.45704 8.83987 9.87893 9.25501 10.716 9.25501H14.5329V15.2684C14.5329 15.938 14.178 16.3064 13.4816 16.3064H6.47041ZM10.8365 8.24387C10.5686 8.24387 10.4682 8.13673 10.4682 7.86884V4.31306L14.3253 8.24387H10.8365Z" fill="#666666"/>
    <path d="M4.89146 19.5594C7.24192 19.5594 9.20398 17.6041 9.20398 15.2469C9.20398 12.8764 7.26198 10.9277 4.89146 10.9277C2.52093 10.9277 0.572266 12.8764 0.572266 15.2469C0.572266 17.6242 2.51423 19.5594 4.89146 19.5594Z" fill="#DDDDDD"/>
    <path d="M4.89006 18.6492C6.73156 18.6492 8.29184 17.1024 8.29184 15.2475C8.29184 13.3792 6.75836 11.8457 4.89006 11.8457C3.02176 11.8457 1.48828 13.3792 1.48828 15.2475C1.48828 17.1158 3.02176 18.6492 4.89006 18.6492Z" fill="#666666"/>
    <path d="M4.89118 17.3781C4.64342 17.3781 4.4827 17.2107 4.4827 16.9696V15.6571H3.1702C2.92913 15.6571 2.76172 15.4964 2.76172 15.2486C2.76172 15.0009 2.92913 14.8334 3.1702 14.8334H4.4827V13.5277C4.4827 13.2866 4.64342 13.1191 4.89118 13.1191C5.13895 13.1191 5.29967 13.2866 5.29967 13.5277V14.8334H6.60547C6.85324 14.8334 7.02067 15.0009 7.02067 15.2486C7.02067 15.4964 6.85324 15.6571 6.60547 15.6571H5.29967V16.9696C5.29967 17.2107 5.13895 17.3781 4.89118 17.3781Z" fill="white"/>
  </g>
  <defs>
    <clipPath id="clip0_208_2532">
      <rect width="15.0402" height="18.7031" fill="white" transform="translate(0.572266 0.857422)"/>
    </clipPath>
  </defs>
</svg>