<svg width="20" height="18" viewBox="0 0 20 18" fill="none" xmlns="http://www.w3.org/2000/svg">
<path d="M4.34693 17.967C5.47695 17.967 7.78721 16.8285 9.4864 15.6148C15.3207 15.7739 19.6985 12.4257 19.6985 8.03945C19.6985 3.8291 15.4798 0.430664 10.2063 0.430664C4.93286 0.430664 0.714111 3.8291 0.714111 8.03945C0.714111 10.785 2.47193 13.2208 5.11701 14.443C4.74034 15.1712 4.03721 16.1589 3.66054 16.6527C3.2169 17.2387 3.48476 17.967 4.34693 17.967ZM5.22583 16.5775C5.15887 16.6025 5.13375 16.5523 5.1756 16.4937C5.64435 15.9162 6.314 15.0456 6.5986 14.5099C6.83298 14.0747 6.77438 13.6896 6.23867 13.4385C3.61032 12.2164 2.10362 10.266 2.10362 8.03945C2.10362 4.60756 5.69458 1.8118 10.2063 1.8118C14.7264 1.8118 18.3173 4.60756 18.3173 8.03945C18.3173 11.463 14.7264 14.2588 10.2063 14.2588C10.0389 14.2588 9.7794 14.2505 9.44461 14.242C9.09304 14.242 8.82518 14.3509 8.50711 14.602C7.4775 15.347 5.98755 16.2677 5.22583 16.5775Z" fill="white"/>
</svg>
