<svg width="20" height="18" viewBox="0 0 20 18" fill="none" xmlns="http://www.w3.org/2000/svg">
<g clip-path="url(#clip0_767_21)">
<path d="M4.34693 17.966C5.47695 17.966 7.78721 16.8275 9.4864 15.6138C15.3207 15.7729 19.6985 12.4247 19.6985 8.03847C19.6985 3.82812 15.4798 0.429688 10.2063 0.429688C4.93286 0.429688 0.714111 3.82812 0.714111 8.03847C0.714111 10.784 2.47193 13.2198 5.11701 14.442C4.74034 15.1702 4.03721 16.1579 3.66054 16.6518C3.2169 17.2377 3.48476 17.966 4.34693 17.966ZM5.22583 16.5765C5.15887 16.6015 5.13375 16.5513 5.1756 16.4928C5.64435 15.9152 6.314 15.0446 6.5986 14.5089C6.83298 14.0737 6.77438 13.6886 6.23867 13.4375C3.61032 12.2154 2.10362 10.265 2.10362 8.03847C2.10362 4.60659 5.69458 1.81082 10.2063 1.81082C14.7264 1.81082 18.3173 4.60659 18.3173 8.03847C18.3173 11.462 14.7264 14.2578 10.2063 14.2578C10.0389 14.2578 9.7794 14.2495 9.44461 14.241C9.09304 14.241 8.82518 14.3499 8.50711 14.601C7.4775 15.346 5.98755 16.2668 5.22583 16.5765Z" fill="#666666"/>
</g>
<defs>
<clipPath id="clip0_767_21">
<rect width="18.9844" height="17.5363" fill="white" transform="translate(0.714355 0.427734)"/>
</clipPath>
</defs>
</svg>
