<svg xmlns="http://www.w3.org/2000/svg" width="41" height="41" viewBox="0 0 41 41" fill="none">
  <path d="M38.6719 20.0996C38.6719 30.0407 30.613 38.0996 20.6719 38.0996M2.67188 20.0996C2.67188 10.1585 10.7307 2.09961 20.6719 2.09961" stroke="#56B6F2" stroke-width="4" stroke-linecap="round"/>
  <path d="M28.0732 1.90152C28.1016 1.90294 28.1299 1.90573 28.1582 1.90836C28.1911 1.91145 28.2241 1.91439 28.2568 1.9191C28.2915 1.92406 28.3259 1.93086 28.3604 1.93766C28.3885 1.94321 28.4164 1.94945 28.4443 1.95621C28.4757 1.96381 28.507 1.97147 28.5381 1.98062C28.5719 1.99059 28.6053 2.00207 28.6387 2.01383C28.6672 2.02392 28.6955 2.03461 28.7236 2.04605C28.7536 2.05818 28.7831 2.0715 28.8125 2.08512C28.8436 2.09955 28.8748 2.11389 28.9053 2.13004C28.9334 2.14483 28.9608 2.16072 28.9883 2.17691C29.0159 2.19324 29.0433 2.20991 29.0703 2.22769C29.1005 2.24755 29.1299 2.26858 29.1592 2.29019C29.1749 2.30179 29.1916 2.31225 29.207 2.32437C29.2159 2.33136 29.2237 2.33973 29.2324 2.34684C29.261 2.37007 29.289 2.3941 29.3164 2.4191C29.3399 2.44041 29.3625 2.46234 29.3848 2.48453C29.407 2.50677 29.4289 2.52941 29.4502 2.55289C29.4752 2.58032 29.4992 2.60834 29.5225 2.63687C29.5299 2.64597 29.5386 2.65398 29.5459 2.66324C30.5023 3.88223 31.9248 6.27581 33.0986 8.72379C33.6931 9.9636 34.2478 11.2678 34.6582 12.4943C35.0559 13.6829 35.372 14.9542 35.3721 16.0744C35.372 17.5585 35.1497 19.3976 33.9971 20.965C32.8709 22.496 31.0985 23.4513 28.6924 23.8185L28.2021 23.8839H28.1875C28.1397 23.8891 28.0916 23.892 28.043 23.8937L27.998 23.8976C27.9893 23.8977 27.9804 23.8966 27.9717 23.8966C27.9632 23.8966 27.9548 23.8977 27.9463 23.8976L27.9014 23.8937C27.8518 23.892 27.8027 23.8893 27.7539 23.8839H27.7422L27.252 23.8185C24.8457 23.4514 23.0735 22.4961 21.9473 20.965C20.7944 19.3975 20.5723 17.5586 20.5723 16.0744C20.5723 14.9542 20.8884 13.6829 21.2861 12.4943C21.6966 11.2679 22.2513 9.96354 22.8457 8.72379C24.0195 6.27589 25.4421 3.88219 26.3984 2.66324C26.406 2.65358 26.4142 2.6444 26.4219 2.63492C26.442 2.61032 26.463 2.58643 26.4844 2.56266C26.5108 2.53315 26.5376 2.50431 26.5654 2.47672C26.581 2.46139 26.5972 2.4467 26.6133 2.4318C26.6473 2.4002 26.682 2.36982 26.7178 2.34098C26.7243 2.33571 26.7307 2.32957 26.7373 2.32437C26.7494 2.31487 26.7621 2.30621 26.7744 2.29703C26.8071 2.27257 26.8401 2.24896 26.874 2.22672C26.9004 2.20935 26.9272 2.19288 26.9541 2.17691C26.9812 2.16094 27.0085 2.14564 27.0361 2.13102C27.0683 2.11394 27.101 2.09833 27.1338 2.08316C27.1616 2.07034 27.1894 2.05755 27.2178 2.04605C27.2472 2.03408 27.2769 2.02335 27.3066 2.01285C27.3383 2.0017 27.3702 1.99112 27.4023 1.9816C27.4341 1.97218 27.466 1.964 27.498 1.95621C27.5269 1.94919 27.5558 1.94241 27.585 1.93668C27.6184 1.93012 27.6519 1.92491 27.6855 1.92008C27.7187 1.91529 27.7518 1.91149 27.7852 1.90836C27.8135 1.90573 27.8417 1.90294 27.8701 1.90152C27.9039 1.89979 27.9378 1.90057 27.9717 1.90055C28.0056 1.90057 28.0394 1.89979 28.0732 1.90152ZM27.9717 7.56851C27.4756 8.42932 26.9474 9.42045 26.4521 10.4533C25.9045 11.5954 25.4215 12.7406 25.0791 13.7638C24.7241 14.8248 24.5724 15.6064 24.5723 16.0744C24.5723 17.2368 24.7654 18.0449 25.1699 18.5949C25.504 19.049 26.1964 19.6141 27.8574 19.8654L27.9717 19.88L28.0869 19.8654C29.7477 19.614 30.4404 19.049 30.7744 18.5949C31.1788 18.0449 31.372 17.2367 31.3721 16.0744C31.372 15.6064 31.2202 14.8248 30.8652 13.7638C30.5228 12.7406 30.0398 11.5955 29.4922 10.4533C28.9969 9.4203 28.4678 8.42942 27.9717 7.56851Z" fill="#5AA7D7"/>
  <path d="M14.0225 10.8019C14.0512 10.8033 14.0797 10.8061 14.1084 10.8087C14.1407 10.8118 14.173 10.8149 14.2051 10.8195C14.2407 10.8246 14.2761 10.831 14.3115 10.838C14.3373 10.8432 14.3631 10.8485 14.3887 10.8546C14.4274 10.8639 14.4656 10.8752 14.5039 10.8869C14.5265 10.8937 14.549 10.9007 14.5713 10.9084C14.6071 10.9207 14.6425 10.934 14.6777 10.9484C14.7043 10.9592 14.7307 10.9706 14.7568 10.9826C14.791 10.9983 14.8249 11.0146 14.8584 11.0324C14.8875 11.0478 14.9159 11.0643 14.9443 11.0812C14.967 11.0947 14.9895 11.1087 15.0117 11.1232C15.0492 11.1476 15.086 11.1732 15.1221 11.2004C15.1332 11.2087 15.1452 11.2161 15.1562 11.2248C15.1627 11.2298 15.1684 11.2362 15.1748 11.2414C15.2086 11.2686 15.2412 11.2976 15.2734 11.3273C15.2936 11.3458 15.3138 11.3639 15.333 11.383C15.3557 11.4057 15.3776 11.4293 15.3994 11.4533C15.4244 11.4807 15.4484 11.5087 15.4717 11.5373C15.4791 11.5464 15.4879 11.5544 15.4951 11.5636C16.6592 13.0472 18.4194 16.0033 19.8789 19.047C20.6162 20.5847 21.3011 22.1955 21.8057 23.7033C22.2974 25.173 22.6718 26.7001 22.6719 28.0187C22.6719 29.8339 22.3974 32.0038 21.0498 33.8361C19.6538 35.734 17.3804 36.9103 14.1523 37.2843C14.1479 37.2849 14.1432 37.2838 14.1387 37.2843C14.0934 37.2892 14.0479 37.2923 14.002 37.2941C13.9751 37.2952 13.9485 37.297 13.9219 37.297C13.8949 37.297 13.868 37.2952 13.8408 37.2941C13.7949 37.2923 13.7494 37.2893 13.7041 37.2843C13.6999 37.2839 13.6956 37.2848 13.6914 37.2843C10.4634 36.9103 8.18998 35.734 6.79395 33.8361C5.44632 32.0038 5.17189 29.8339 5.17188 28.0187C5.17196 26.7001 5.5463 25.173 6.03809 23.7033C6.54265 22.1955 7.22753 20.5847 7.96484 19.047C9.4243 16.0033 11.1846 13.0472 12.3486 11.5636C12.3558 11.5545 12.3638 11.5462 12.3711 11.5373C12.3943 11.5087 12.4183 11.4807 12.4434 11.4533C12.4567 11.4386 12.4697 11.4236 12.4834 11.4093L12.5332 11.3595C12.5448 11.3484 12.5574 11.3382 12.5693 11.3273C12.6016 11.2976 12.6342 11.2686 12.668 11.2414C12.6745 11.2361 12.6808 11.23 12.6875 11.2248C12.6983 11.2163 12.7098 11.2086 12.7207 11.2004C12.757 11.1731 12.7943 11.1478 12.832 11.1232C12.8541 11.1088 12.876 11.0946 12.8984 11.0812C12.9268 11.0643 12.9553 11.0478 12.9844 11.0324C13.0178 11.0146 13.0518 10.9983 13.0859 10.9826C13.1121 10.9706 13.1385 10.9592 13.165 10.9484C13.2003 10.934 13.2357 10.9207 13.2715 10.9084C13.2938 10.9007 13.3163 10.8937 13.3389 10.8869C13.3772 10.8752 13.4154 10.8639 13.4541 10.8546C13.4797 10.8485 13.5054 10.8432 13.5312 10.838C13.5667 10.831 13.6021 10.8246 13.6377 10.8195C13.6698 10.8149 13.7021 10.8118 13.7344 10.8087C13.763 10.8061 13.7916 10.8034 13.8203 10.8019C13.8541 10.8002 13.888 10.801 13.9219 10.8009C13.9554 10.801 13.989 10.8002 14.0225 10.8019ZM13.9219 16.4054C13.1751 17.6496 12.3389 19.1756 11.5713 20.7765C10.8809 22.2164 10.2676 23.6674 9.83105 24.9718C9.38193 26.314 9.17197 27.3522 9.17188 28.0187C9.17189 29.512 9.41749 30.6513 10.0166 31.466C10.5332 32.1681 11.5335 32.9225 13.7021 33.2511L13.9219 33.2804L14.1416 33.2511C16.3103 32.9225 17.3105 32.1681 17.8271 31.466C18.4263 30.6513 18.6719 29.512 18.6719 28.0187C18.6718 27.3522 18.4618 26.314 18.0127 24.9718C17.5762 23.6674 16.9629 22.2164 16.2725 20.7765C15.5048 19.1756 14.6686 17.6496 13.9219 16.4054Z" fill="#5AA7D7"/>
</svg>