<svg width="24" height="24" viewBox="0 0 24 24" fill="none" xmlns="http://www.w3.org/2000/svg">
<g clip-path="url(#clip0_1150_11130)">
<path d="M4.54556 19.9662C4.89713 20.3077 5.47971 20.3077 5.82123 19.9662L12.2498 13.5376L18.6784 19.9662C19.0199 20.3077 19.6126 20.3178 19.954 19.9662C20.2955 19.6147 20.2955 19.0421 19.954 18.7006L13.5255 12.2619L19.954 5.83337C20.2955 5.49185 20.3056 4.90926 19.954 4.56774C19.6024 4.21618 19.0199 4.21618 18.6784 4.56774L12.2498 10.9963L5.82123 4.56774C5.47971 4.21618 4.88708 4.20614 4.54556 4.56774C4.20405 4.91931 4.20405 5.49185 4.54556 5.83337L10.9741 12.2619L4.54556 18.7006C4.20405 19.0421 4.194 19.6247 4.54556 19.9662Z" fill="#666666"/>
</g>
<defs>
<clipPath id="clip0_1150_11130">
<rect width="15.9283" height="15.9384" fill="white" transform="translate(4.28564 4.28564)"/>
</clipPath>
</defs>
</svg>
