<svg width="390" height="1056" viewBox="0 0 390 1056" fill="none" xmlns="http://www.w3.org/2000/svg">
<rect width="390" height="1056" rx="20" fill="#A3B995"/>
<rect x="20" y="20" width="350" height="500" rx="20" fill="#FEFEFE"/>
<rect x="195" y="36" width="4" height="88" rx="2" fill="white"/>
<rect x="20" y="536" width="350" height="500" rx="20" fill="#FEFEFE"/>
<rect x="52" y="503" width="50" height="12" rx="6" transform="rotate(90 52 503)" fill="#CCCCCC"/>
<rect x="112" y="503" width="50" height="12" rx="6" transform="rotate(90 112 503)" fill="#CCCCCC"/>
<rect x="172" y="503" width="50" height="12" rx="6" transform="rotate(90 172 503)" fill="#CCCCCC"/>
<rect x="232" y="503" width="50" height="12" rx="6" transform="rotate(90 232 503)" fill="#CCCCCC"/>
<rect x="292" y="503" width="50" height="12" rx="6" transform="rotate(90 292 503)" fill="#CCCCCC"/>
<rect x="352" y="503" width="50" height="12" rx="6" transform="rotate(90 352 503)" fill="#CCCCCC"/>
</svg>
