<svg width="1200" height="716" viewBox="0 0 1200 716" fill="none" xmlns="http://www.w3.org/2000/svg">
<rect width="1200" height="716" rx="20" fill="#A3B995"/>
<rect x="24" y="24" width="566" height="668" rx="20" fill="#FEFEFE"/>
<rect x="610" y="24" width="566" height="668" rx="20" fill="#FEFEFE"/>
<rect x="560" y="52" width="80" height="14" rx="7" fill="#CCCCCC"/>
<rect x="560" y="126" width="80" height="14" rx="7" fill="#CCCCCC"/>
<rect x="560" y="200" width="80" height="14" rx="7" fill="#CCCCCC"/>
<rect x="560" y="274" width="80" height="14" rx="7" fill="#CCCCCC"/>
<rect x="560" y="348" width="80" height="14" rx="7" fill="#CCCCCC"/>
<rect x="560" y="422" width="80" height="14" rx="7" fill="#CCCCCC"/>
<rect x="560" y="496" width="80" height="14" rx="7" fill="#CCCCCC"/>
<rect x="560" y="570" width="80" height="14" rx="7" fill="#CCCCCC"/>
<rect x="560" y="644" width="80" height="14" rx="7" fill="#CCCCCC"/>
</svg>
