<svg width="79" height="96" viewBox="0 0 79 96" fill="none" xmlns="http://www.w3.org/2000/svg">
<path d="M52.9549 0.977337C43.5498 0.977337 39.4966 4.57347 39.1194 9.14842C39.0978 9.1376 39.0762 9.1322 39.0547 9.12139C38.6612 4.55726 34.6081 0.971924 25.2191 0.971924C15.3235 0.971924 3.26123 8.49409 3.26123 9.86224C3.26123 11.3007 15.3235 18.7526 25.2191 18.7526C31.0185 18.7526 34.7806 17.3844 36.9042 15.2646C35.934 21.4564 35.298 31.0011 35.298 37.7067C35.298 48.4032 36.9203 47.8083 38.9199 47.8083C40.9195 47.8083 42.5419 48.3978 42.5419 37.7067C42.5419 30.8443 41.8735 21.0076 40.8656 14.8374C42.8976 17.2005 46.7729 18.758 52.9549 18.758C62.8505 18.758 74.9128 11.3007 74.9128 9.86766C74.9128 8.43461 62.8505 0.977337 52.9549 0.977337Z" fill="#359439"/>
<path d="M71.7702 31.7251H6.40305C2.88353 31.7251 0 34.6128 0 38.1495V49.3543C0 52.8856 2.87814 55.7787 6.40305 55.7787H7.23846L12.2294 90.2152C12.6175 92.892 15.4956 95.0281 18.6324 95.0281H59.5408C62.6776 95.0281 65.5558 92.892 65.9438 90.2152L70.9348 55.7787H71.7702C75.2897 55.7787 78.1732 52.891 78.1732 49.3543V38.1495C78.1732 34.6182 75.2951 31.7251 71.7702 31.7251Z" fill="#996625"/>
</svg>
