<svg width="348" height="481" viewBox="0 0 348 481" fill="none" xmlns="http://www.w3.org/2000/svg">
<rect width="348" height="942.277" rx="17.8462" fill="#A3B995"/>
<rect x="18" y="18.2856" width="312" height="445.714" rx="17.8286" fill="#FEFEFE"/>
<path d="M79.4885 46.8145C74.2674 46.8145 72.0174 48.8108 71.808 51.3505C71.796 51.3445 71.784 51.3415 71.7721 51.3355C71.5537 48.8018 69.3037 46.8115 64.0915 46.8115C58.5982 46.8115 51.902 50.9873 51.902 51.7468C51.902 52.5453 58.5982 56.682 64.0915 56.682C67.311 56.682 69.3994 55.9225 70.5783 54.7458C70.0397 58.183 69.6866 63.4815 69.6866 67.204C69.6866 73.1419 70.5872 72.8117 71.6973 72.8117C72.8073 72.8117 73.7079 73.1389 73.7079 67.204C73.7079 63.3945 73.3369 57.9339 72.7774 54.5086C73.9054 55.8205 76.0567 56.6851 79.4885 56.6851C84.9819 56.6851 91.6781 52.5453 91.6781 51.7498C91.6781 50.9543 84.9819 46.8145 79.4885 46.8145Z" fill="#359439"/>
<path d="M89.9333 63.8843H53.646C51.6922 63.8843 50.0915 65.4873 50.0915 67.4506V73.6707C50.0915 75.631 51.6892 77.2371 53.646 77.2371H54.1098L56.8804 96.3537C57.0958 97.8397 58.6935 99.0255 60.4349 99.0255H83.1444C84.8858 99.0255 86.4835 97.8397 86.6989 96.3537L89.4696 77.2371H89.9333C91.8871 77.2371 93.4879 75.634 93.4879 73.6707V67.4506C93.4879 65.4903 91.8901 63.8843 89.9333 63.8843Z" fill="#996625"/>
<path d="M69.8811 115.333V118.702H63.429V120.487H66.8111H70.2306L70.2431 121.323H66.8859L66.8735 123.557H71.3663V124.393H60.9829V123.557H65.9125V121.323H62.4555V117.878H68.9077V116.181H62.5179V115.333H69.8811ZM81.3243 115.432V116.256H77.9048V116.518C77.9048 117.017 78.0587 117.5 78.3666 117.966C78.6744 118.432 79.1154 118.864 79.6894 119.264C80.2469 119.646 80.9707 119.929 81.861 120.112L81.5739 120.949C81.0914 120.815 80.6546 120.674 80.2635 120.524C79.8808 120.366 79.5314 120.175 79.2152 119.95C78.7659 119.642 78.3915 119.334 78.092 119.027C77.8008 118.719 77.572 118.365 77.4056 117.966C77.1227 118.731 76.6402 119.364 75.9579 119.863C75.2757 120.362 74.3938 120.811 73.3122 121.211L72.9502 120.374C73.7656 120.142 74.4728 119.825 75.0718 119.426C75.6709 119.018 76.1243 118.565 76.4322 118.066C76.7483 117.558 76.9064 117.042 76.9064 116.518V116.256H73.387V115.432H81.3243ZM72.2139 123.544H82.5973V124.393H72.2139V123.544Z" fill="#333333"/>
<path d="M172.805 46.8145C167.584 46.8145 165.334 48.8108 165.124 51.3505C165.112 51.3445 165.1 51.3415 165.088 51.3355C164.87 48.8018 162.62 46.8115 157.408 46.8115C151.915 46.8115 145.218 50.9873 145.218 51.7468C145.218 52.5453 151.915 56.682 157.408 56.682C160.627 56.682 162.716 55.9225 163.895 54.7458C163.356 58.183 163.003 63.4815 163.003 67.204C163.003 73.1419 163.904 72.8117 165.014 72.8117C166.124 72.8117 167.024 73.1389 167.024 67.204C167.024 63.3945 166.653 57.9339 166.094 54.5086C167.222 55.8205 169.373 56.6851 172.805 56.6851C178.298 56.6851 184.994 52.5453 184.994 51.7498C184.994 50.9543 178.298 46.8145 172.805 46.8145Z" fill="#359439"/>
<path d="M183.25 63.8843H146.962C145.009 63.8843 143.408 65.4873 143.408 67.4506V73.6707C143.408 75.631 145.006 77.2371 146.962 77.2371H147.426L150.197 96.3537C150.412 97.8397 152.01 99.0255 153.751 99.0255H176.461C178.202 99.0255 179.8 97.8397 180.015 96.3537L182.786 77.2371H183.25C185.204 77.2371 186.804 75.634 186.804 73.6707V67.4506C186.804 65.4903 185.206 63.8843 183.25 63.8843Z" fill="#996625"/>
<path d="M160.14 115.719V122.596H154.786V115.719H160.14ZM159.166 121.747V116.568H155.759V121.747H159.166ZM162.274 114.459H163.247V118.752H164.982V119.576H163.247V125.616H162.274V114.459ZM171.383 115.482V119.351H167.14V121.972L167.901 121.984C169.715 121.984 171.242 121.868 172.482 121.635L172.606 122.409C171.2 122.717 169.353 122.87 167.065 122.87H166.167V118.59H170.41V116.306H166.254V115.482H171.383ZM174.029 114.459H175.003V125.629H174.029V114.459Z" fill="#333333"/>
<rect x="218.896" y="32.5488" width="78.4457" height="109.646" rx="17.8286" stroke="#999999" stroke-width="1.78286" stroke-miterlimit="1.97029" stroke-dasharray="10.7 7.13"/>
<path d="M256.781 88.7084C256.781 89.063 256.922 89.4031 257.173 89.6539C257.424 89.9047 257.764 90.0455 258.119 90.0455C258.473 90.0455 258.813 89.9047 259.064 89.6539C259.315 89.4031 259.456 89.063 259.456 88.7084V82.9141H265.25C265.605 82.9141 265.945 82.7732 266.195 82.5225C266.446 82.2717 266.587 81.9316 266.587 81.577C266.587 81.2223 266.446 80.8822 266.195 80.6315C265.945 80.3807 265.605 80.2398 265.25 80.2398H259.456V74.4455C259.456 74.0909 259.315 73.7508 259.064 73.5C258.813 73.2493 258.473 73.1084 258.119 73.1084C257.764 73.1084 257.424 73.2493 257.173 73.5C256.922 73.7508 256.781 74.0909 256.781 74.4455V80.2398H250.987C250.632 80.2398 250.292 80.3807 250.042 80.6315C249.791 80.8822 249.65 81.2223 249.65 81.577C249.65 81.9316 249.791 82.2717 250.042 82.5225C250.292 82.7732 250.632 82.9141 250.987 82.9141H256.781V88.7084Z" fill="#999999"/>
<path d="M240.786 114.205V112.882H241.759V114.205H245.204V115.041H241.759C241.809 115.44 241.988 115.798 242.296 116.114C242.604 116.422 242.999 116.688 243.481 116.913C244.114 117.212 244.825 117.429 245.616 117.562L245.378 118.398C244.438 118.19 243.685 117.953 243.12 117.687C242.204 117.262 241.593 116.709 241.285 116.027C240.977 116.709 240.445 117.25 239.688 117.649C238.93 118.049 238.136 118.34 237.304 118.523L236.967 117.687C237.999 117.504 238.868 117.171 239.575 116.688C240.291 116.206 240.694 115.657 240.786 115.041H237.354V114.205H240.786ZM236.081 119.459H246.464V120.283H241.809V124.289H240.836V120.283H236.081V119.459ZM252.965 114.13V114.879C252.965 118.057 251.293 120.482 247.948 122.155L247.412 121.418C249.067 120.628 250.24 119.684 250.931 118.585C251.63 117.487 251.979 116.368 251.979 115.228V114.954H247.786V114.13H252.965ZM255.287 113.057H256.26V117.35H257.995V118.173H256.26V124.214H255.287V113.057ZM261.426 115.016V113.331H262.399V115.016H265.232V115.84H258.455V115.016H261.426ZM259.104 119.484C259.104 118.985 259.229 118.544 259.479 118.161C259.728 117.77 260.07 117.466 260.502 117.25C260.943 117.034 261.438 116.925 261.987 116.925C262.536 116.925 263.027 117.034 263.46 117.25C263.901 117.466 264.242 117.77 264.483 118.161C264.733 118.544 264.858 118.985 264.858 119.484C264.858 119.983 264.733 120.428 264.483 120.819C264.242 121.202 263.901 121.501 263.46 121.718C263.027 121.934 262.536 122.042 261.987 122.042C261.438 122.042 260.943 121.934 260.502 121.718C260.07 121.501 259.728 121.202 259.479 120.819C259.229 120.428 259.104 119.983 259.104 119.484ZM260.103 119.484C260.103 119.991 260.282 120.403 260.639 120.719C260.997 121.036 261.447 121.194 261.987 121.194C262.52 121.194 262.965 121.036 263.323 120.719C263.68 120.403 263.859 119.991 263.859 119.484C263.859 118.985 263.68 118.573 263.323 118.248C262.965 117.924 262.52 117.762 261.987 117.762C261.447 117.762 260.997 117.924 260.639 118.248C260.282 118.573 260.103 118.985 260.103 119.484ZM266.518 113.057H267.491V117.537H269.226V118.361H267.491V124.226H266.518V113.057ZM275.852 114.142V115.016C275.852 117.861 274.146 120.17 270.735 121.942L270.223 121.181C271.33 120.632 272.228 120.025 272.919 119.359C273.609 118.693 274.104 118.028 274.404 117.362C274.712 116.688 274.866 116.035 274.866 115.403V114.991H270.573V114.142H275.852ZM278.273 113.057H279.246V124.226H278.273V113.057Z" fill="#333333"/>
<rect x="315.737" y="32.5488" width="3.56571" height="372.617" rx="1.78286" fill="white"/>
<rect x="315.737" y="32.5488" width="3.56571" height="78.4457" rx="1.78286" fill="white"/>
<rect x="17.8462" y="478.277" width="312.308" height="446.154" rx="17.8462" fill="#FEFEFE"/>
<rect x="46.4" y="448.831" width="44.6154" height="10.7077" rx="5.35385" transform="rotate(90 46.4 448.831)" fill="#CCCCCC"/>
<rect x="99.9384" y="448.831" width="44.6154" height="10.7077" rx="5.35385" transform="rotate(90 99.9384 448.831)" fill="#CCCCCC"/>
<rect x="153.477" y="448.831" width="44.6154" height="10.7077" rx="5.35385" transform="rotate(90 153.477 448.831)" fill="#CCCCCC"/>
<rect x="207.015" y="448.831" width="44.6154" height="10.7077" rx="5.35385" transform="rotate(90 207.015 448.831)" fill="#CCCCCC"/>
<rect x="260.554" y="448.831" width="44.6154" height="10.7077" rx="5.35385" transform="rotate(90 260.554 448.831)" fill="#CCCCCC"/>
<rect x="314.092" y="448.831" width="44.6154" height="10.7077" rx="5.35385" transform="rotate(90 314.092 448.831)" fill="#CCCCCC"/>
</svg>
