<svg width="812" height="716" viewBox="0 0 812 716" fill="none" xmlns="http://www.w3.org/2000/svg">
<rect width="1200" height="716" rx="20" fill="#A3B995"/>
<rect x="24" y="24" width="566" height="668" rx="20" fill="#FEFEFE"/>
<path d="M143.955 79.9773C134.55 79.9773 130.497 83.5735 130.119 88.1484C130.098 88.1376 130.076 88.1322 130.055 88.1214C129.661 83.5573 125.608 79.9719 116.219 79.9719C106.324 79.9719 94.2612 87.4941 94.2612 88.8622C94.2612 90.3007 106.324 97.7526 116.219 97.7526C122.019 97.7526 125.781 96.3844 127.904 94.2646C126.934 100.456 126.298 110.001 126.298 116.707C126.298 127.403 127.92 126.808 129.92 126.808C131.92 126.808 133.542 127.398 133.542 116.707C133.542 109.844 132.874 100.008 131.866 93.8374C133.898 96.2005 137.773 97.758 143.955 97.758C153.851 97.758 165.913 90.3007 165.913 88.8677C165.913 87.4346 153.851 79.9773 143.955 79.9773Z" fill="#359439"/>
<path d="M162.77 110.725H97.403C93.8835 110.725 91 113.613 91 117.149V128.354C91 131.886 93.8781 134.779 97.403 134.779H98.2385L103.229 169.215C103.617 171.892 106.496 174.028 109.632 174.028H150.541C153.678 174.028 156.556 171.892 156.944 169.215L161.935 134.779H162.77C166.29 134.779 169.173 131.891 169.173 128.354V117.149C169.173 113.618 166.295 110.725 162.77 110.725Z" fill="#996625"/>
<path d="M127.64 203.268V207.588H119.368V209.876H123.704H128.088L128.104 210.948H123.8L123.784 213.812H129.544V214.884H116.232V213.812H122.552V210.948H118.12V206.532H126.392V204.356H118.2V203.268H127.64ZM142.311 203.396V204.452H137.927V204.788C137.927 205.428 138.124 206.047 138.519 206.644C138.913 207.242 139.479 207.796 140.215 208.308C140.929 208.799 141.857 209.162 142.999 209.396L142.631 210.468C142.012 210.298 141.452 210.116 140.951 209.924C140.46 209.722 140.012 209.476 139.607 209.188C139.031 208.794 138.551 208.399 138.167 208.004C137.793 207.61 137.5 207.156 137.287 206.644C136.924 207.626 136.305 208.436 135.431 209.076C134.556 209.716 133.425 210.292 132.039 210.804L131.575 209.732C132.62 209.434 133.527 209.028 134.295 208.516C135.063 207.994 135.644 207.412 136.039 206.772C136.444 206.122 136.647 205.46 136.647 204.788V204.452H132.135V203.396H142.311ZM130.631 213.796H143.943V214.884H130.631V213.796Z" fill="#333333"/>
<path d="M305.955 79.9773C296.55 79.9773 292.497 83.5735 292.119 88.1484C292.098 88.1376 292.076 88.1322 292.055 88.1214C291.661 83.5573 287.608 79.9719 278.219 79.9719C268.324 79.9719 256.261 87.4941 256.261 88.8622C256.261 90.3007 268.324 97.7526 278.219 97.7526C284.019 97.7526 287.781 96.3844 289.904 94.2646C288.934 100.456 288.298 110.001 288.298 116.707C288.298 127.403 289.92 126.808 291.92 126.808C293.92 126.808 295.542 127.398 295.542 116.707C295.542 109.844 294.874 100.008 293.866 93.8374C295.898 96.2005 299.773 97.758 305.955 97.758C315.851 97.758 327.913 90.3007 327.913 88.8677C327.913 87.4346 315.851 79.9773 305.955 79.9773Z" fill="#359439"/>
<path d="M324.77 110.725H259.403C255.884 110.725 253 113.613 253 117.149V128.354C253 131.886 255.878 134.779 259.403 134.779H260.238L265.229 169.215C265.617 171.892 268.496 174.028 271.632 174.028H312.541C315.678 174.028 318.556 171.892 318.944 169.215L323.935 134.779H324.77C328.29 134.779 331.173 131.891 331.173 128.354V117.149C331.173 113.618 328.295 110.725 324.77 110.725Z" fill="#996625"/>
<path d="M285.72 203.764V212.58H278.856V203.764H285.72ZM284.472 211.492V204.852H280.104V211.492H284.472ZM288.456 202.148H289.704V207.652H291.928V208.708H289.704V216.452H288.456V202.148ZM300.135 203.46V208.42H294.695V211.78L295.671 211.796C297.996 211.796 299.953 211.647 301.543 211.348L301.703 212.34C299.9 212.735 297.532 212.932 294.599 212.932H293.447V207.444H298.887V204.516H293.559V203.46H300.135ZM303.527 202.148H304.775V216.468H303.527V202.148Z" fill="#333333"/>
<rect x="387" y="56" width="134" height="188" rx="20" stroke="#999999" stroke-width="3" stroke-miterlimit="1.97029" stroke-dasharray="12 8"/>
<path d="M451.5 148.333C451.5 148.996 451.763 149.632 452.232 150.101C452.701 150.57 453.337 150.833 454 150.833C454.663 150.833 455.299 150.57 455.768 150.101C456.237 149.632 456.5 148.996 456.5 148.333V137.5H467.333C467.996 137.5 468.632 137.236 469.101 136.768C469.57 136.299 469.833 135.663 469.833 135C469.833 134.337 469.57 133.701 469.101 133.232C468.632 132.763 467.996 132.5 467.333 132.5H456.5V121.667C456.5 121.003 456.237 120.368 455.768 119.899C455.299 119.43 454.663 119.167 454 119.167C453.337 119.167 452.701 119.43 452.232 119.899C451.763 120.368 451.5 121.003 451.5 121.667V132.5H440.667C440.004 132.5 439.368 132.763 438.899 133.232C438.43 133.701 438.167 134.337 438.167 135C438.167 135.663 438.43 136.299 438.899 136.768C439.368 137.236 440.004 137.5 440.667 137.5H451.5V148.333Z" fill="#999999"/>
<path d="M431.779 203.592V201.896H433.026V203.592H437.443V204.664H433.026C433.09 205.176 433.32 205.635 433.715 206.04C434.109 206.435 434.616 206.776 435.234 207.064C436.045 207.448 436.957 207.725 437.97 207.896L437.667 208.968C436.461 208.701 435.496 208.397 434.771 208.056C433.597 207.512 432.813 206.803 432.418 205.928C432.024 206.803 431.341 207.496 430.37 208.008C429.4 208.52 428.381 208.893 427.314 209.128L426.882 208.056C428.205 207.821 429.32 207.395 430.226 206.776C431.144 206.157 431.661 205.453 431.779 204.664H427.378V203.592H431.779ZM425.746 210.328H439.059V211.384H433.09V216.52H431.842V211.384H425.746V210.328ZM447.393 203.496V204.456C447.393 208.531 445.249 211.64 440.961 213.784L440.273 212.84C442.396 211.827 443.9 210.616 444.785 209.208C445.681 207.8 446.129 206.365 446.129 204.904V204.552H440.753V203.496H447.393ZM450.369 202.12H451.617V207.624H453.841V208.68H451.617V216.424H450.369V202.12ZM458.24 204.632V202.472H459.488V204.632H463.12V205.688H454.432V204.632H458.24ZM455.264 210.36C455.264 209.72 455.424 209.155 455.744 208.664C456.064 208.163 456.501 207.773 457.056 207.496C457.621 207.219 458.256 207.08 458.96 207.08C459.664 207.08 460.293 207.219 460.848 207.496C461.413 207.773 461.851 208.163 462.16 208.664C462.48 209.155 462.64 209.72 462.64 210.36C462.64 211 462.48 211.571 462.16 212.072C461.851 212.563 461.413 212.947 460.848 213.224C460.293 213.501 459.664 213.64 458.96 213.64C458.256 213.64 457.621 213.501 457.056 213.224C456.501 212.947 456.064 212.563 455.744 212.072C455.424 211.571 455.264 211 455.264 210.36ZM456.544 210.36C456.544 211.011 456.773 211.539 457.232 211.944C457.691 212.349 458.267 212.552 458.96 212.552C459.643 212.552 460.213 212.349 460.672 211.944C461.131 211.539 461.36 211.011 461.36 210.36C461.36 209.72 461.131 209.192 460.672 208.776C460.213 208.36 459.643 208.152 458.96 208.152C458.267 208.152 457.691 208.36 457.232 208.776C456.773 209.192 456.544 209.72 456.544 210.36ZM464.768 202.12H466.016V207.864H468.24V208.92H466.016V216.44H464.768V202.12ZM476.735 203.512V204.632C476.735 208.28 474.548 211.24 470.175 213.512L469.519 212.536C470.937 211.832 472.089 211.053 472.975 210.2C473.86 209.347 474.495 208.493 474.879 207.64C475.273 206.776 475.471 205.939 475.471 205.128V204.6H469.967V203.512H476.735ZM479.839 202.12H481.087V216.44H479.839V202.12Z" fill="#333333"/>
<rect x="610" y="24" width="566" height="668" rx="20" fill="#FEFEFE"/>
<rect x="655" y="48" width="500" height="148" rx="20" fill="#F5F4F0"/>
<path d="M735.955 74.9773C726.55 74.9773 722.497 78.5735 722.119 83.1484C722.098 83.1376 722.076 83.1322 722.055 83.1214C721.661 78.5573 717.608 74.9719 708.219 74.9719C698.324 74.9719 686.261 82.4941 686.261 83.8622C686.261 85.3007 698.324 92.7526 708.219 92.7526C714.019 92.7526 717.781 91.3844 719.904 89.2646C718.934 95.4564 718.298 105.001 718.298 111.707C718.298 122.403 719.92 121.808 721.92 121.808C723.92 121.808 725.542 122.398 725.542 111.707C725.542 104.844 724.874 95.0076 723.866 88.8374C725.898 91.2005 729.773 92.758 735.955 92.758C745.851 92.758 757.913 85.3007 757.913 83.8677C757.913 82.4346 745.851 74.9773 735.955 74.9773Z" fill="#359439"/>
<path d="M754.77 105.725H689.403C685.884 105.725 683 108.613 683 112.149V123.354C683 126.886 685.878 129.779 689.403 129.779H690.238L695.229 164.215C695.617 166.892 698.496 169.028 701.632 169.028H742.541C745.678 169.028 748.556 166.892 748.944 164.215L753.935 129.779H754.77C758.29 129.779 761.173 126.891 761.173 123.354V112.149C761.173 108.618 758.295 105.725 754.77 105.725Z" fill="#996625"/>
<path d="M810.769 84.202C811.297 84.202 811.657 84.298 811.849 84.49C812.053 84.682 812.155 85.036 812.155 85.552V93.04C812.155 93.556 812.053 93.91 811.849 94.102C811.657 94.294 811.297 94.39 810.769 94.39H805.783C805.255 94.39 804.889 94.294 804.685 94.102C804.493 93.91 804.397 93.556 804.397 93.04V85.552C804.397 85.036 804.493 84.682 804.685 84.49C804.889 84.298 805.255 84.202 805.783 84.202H810.769ZM806.557 85.75C806.305 85.75 806.179 85.87 806.179 86.11V92.482C806.179 92.722 806.305 92.842 806.557 92.842H809.995C810.247 92.842 810.373 92.722 810.373 92.482V86.11C810.373 85.87 810.247 85.75 809.995 85.75H806.557ZM815.701 82.996C815.941 82.996 816.151 83.056 816.331 83.176C816.511 83.296 816.601 83.488 816.601 83.752V88.432H818.581C818.821 88.432 818.989 88.51 819.085 88.666C819.193 88.81 819.247 88.99 819.247 89.206C819.247 89.422 819.193 89.608 819.085 89.764C818.989 89.92 818.821 89.998 818.581 89.998H816.601V97.792C816.601 98.056 816.511 98.248 816.331 98.368C816.151 98.488 815.941 98.548 815.701 98.548C815.461 98.548 815.251 98.488 815.071 98.368C814.891 98.248 814.801 98.056 814.801 97.792V83.752C814.801 83.488 814.891 83.296 815.071 83.176C815.251 83.056 815.461 82.996 815.701 82.996ZM827.26 84.094C827.788 84.094 828.148 84.19 828.34 84.382C828.544 84.574 828.646 84.928 828.646 85.444V88.792C828.646 89.308 828.544 89.662 828.34 89.854C828.148 90.046 827.788 90.142 827.26 90.142H823.372C823.228 90.142 823.126 90.172 823.066 90.232C823.018 90.28 822.994 90.37 822.994 90.502V92.896C822.994 93.028 823.018 93.124 823.066 93.184C823.126 93.232 823.228 93.256 823.372 93.256C824.656 93.256 825.814 93.226 826.846 93.166C827.89 93.106 828.898 93.01 829.87 92.878C830.074 92.854 830.236 92.908 830.356 93.04C830.488 93.16 830.566 93.322 830.59 93.526C830.614 93.742 830.584 93.94 830.5 94.12C830.428 94.288 830.29 94.384 830.086 94.408C829.666 94.468 829.21 94.522 828.718 94.57C828.238 94.618 827.692 94.66 827.08 94.696C826.48 94.732 825.808 94.762 825.064 94.786C824.332 94.798 823.51 94.804 822.598 94.804C822.07 94.804 821.704 94.708 821.5 94.516C821.308 94.324 821.212 93.97 821.212 93.454V89.998C821.212 89.482 821.308 89.134 821.5 88.954C821.704 88.762 822.07 88.666 822.598 88.666H826.504C826.756 88.666 826.882 88.54 826.882 88.288V86.002C826.882 85.762 826.756 85.642 826.504 85.642H821.842C821.614 85.642 821.452 85.564 821.356 85.408C821.26 85.252 821.212 85.072 821.212 84.868C821.212 84.664 821.26 84.484 821.356 84.328C821.452 84.172 821.614 84.094 821.842 84.094H827.26ZM832.84 82.996C833.08 82.996 833.29 83.056 833.47 83.176C833.662 83.296 833.758 83.488 833.758 83.752V97.792C833.758 98.056 833.662 98.248 833.47 98.368C833.29 98.488 833.08 98.548 832.84 98.548C832.612 98.548 832.402 98.488 832.21 98.368C832.03 98.248 831.94 98.056 831.94 97.792V83.752C831.94 83.488 832.03 83.296 832.21 83.176C832.402 83.056 832.612 82.996 832.84 82.996Z" fill="#333333"/>
<path d="M815.285 120.24V124.56H807.013V126.848H811.349H815.733L815.749 127.92H811.445L811.429 130.784H817.189V131.856H803.877V130.784H810.197V127.92H805.765V123.504H814.037V121.328H805.845V120.24H815.285ZM829.956 120.368V121.424H825.572V121.76C825.572 122.4 825.769 123.019 826.164 123.616C826.559 124.213 827.124 124.768 827.86 125.28C828.575 125.771 829.503 126.133 830.644 126.368L830.276 127.44C829.657 127.269 829.097 127.088 828.596 126.896C828.105 126.693 827.657 126.448 827.252 126.16C826.676 125.765 826.196 125.371 825.812 124.976C825.439 124.581 825.145 124.128 824.932 123.616C824.569 124.597 823.951 125.408 823.076 126.048C822.201 126.688 821.071 127.264 819.684 127.776L819.22 126.704C820.265 126.405 821.172 126 821.94 125.488C822.708 124.965 823.289 124.384 823.684 123.744C824.089 123.093 824.292 122.432 824.292 121.76V121.424H819.78V120.368H829.956ZM818.276 130.768H831.588V131.856H818.276V130.768ZM840.163 120.736V129.552H833.299V120.736H840.163ZM838.915 128.464V121.824H834.547V128.464H838.915ZM842.899 119.12H844.147V124.624H846.371V125.68H844.147V133.424H842.899V119.12ZM854.577 120.432V125.392H849.137V128.752L850.113 128.768C852.439 128.768 854.396 128.619 855.985 128.32L856.145 129.312C854.343 129.707 851.975 129.904 849.041 129.904H847.889V124.416H853.329V121.488H848.001V120.432H854.577ZM857.969 119.12H859.217V133.44H857.969V119.12Z" fill="#666666"/>
<path d="M815.109 145.776V146.832H807.285V149.6H812.021H815.253V150.656H812.021H806.037V145.776H815.109ZM803.877 152.144H817.189V153.216H803.877V152.144ZM805.781 157.104C805.781 156.613 805.957 156.176 806.309 155.792C806.661 155.397 807.2 155.088 807.925 154.864C808.651 154.64 809.552 154.528 810.629 154.528C812.219 154.528 813.419 154.768 814.229 155.248C815.051 155.728 815.461 156.347 815.461 157.104C815.461 157.893 815.056 158.523 814.245 158.992C813.435 159.461 812.229 159.696 810.629 159.696C809.029 159.696 807.819 159.461 806.997 158.992C806.187 158.523 805.781 157.893 805.781 157.104ZM807.013 157.104C807.013 157.552 807.312 157.931 807.909 158.24C808.507 158.549 809.413 158.704 810.629 158.704C811.845 158.704 812.747 158.549 813.333 158.24C813.931 157.931 814.229 157.552 814.229 157.104C814.229 156.645 813.936 156.267 813.349 155.968C812.763 155.669 811.856 155.52 810.629 155.52C809.403 155.52 808.491 155.669 807.893 155.968C807.307 156.267 807.013 156.645 807.013 157.104ZM829.428 145.584V149.104H821.588V150.56H825.556H829.764V151.616H825.732V153.072H831.588V154.128H818.276V153.072H824.484V151.616H820.34V148.048H828.18V146.64H820.372V145.584H829.428ZM820.276 155.376H829.54V159.6H828.292V156.416H820.276V155.376ZM833.379 148.88C833.379 148.219 833.544 147.643 833.875 147.152C834.216 146.651 834.669 146.267 835.235 146C835.811 145.733 836.445 145.6 837.139 145.6C837.832 145.6 838.461 145.733 839.027 146C839.603 146.267 840.056 146.651 840.387 147.152C840.728 147.643 840.899 148.219 840.899 148.88C840.899 149.531 840.728 150.107 840.387 150.608C840.056 151.099 839.603 151.483 839.027 151.76C838.451 152.027 837.821 152.16 837.139 152.16C836.445 152.16 835.811 152.027 835.235 151.76C834.669 151.483 834.216 151.099 833.875 150.608C833.544 150.107 833.379 149.531 833.379 148.88ZM834.675 148.88C834.675 149.296 834.787 149.669 835.011 150C835.235 150.331 835.533 150.592 835.907 150.784C836.291 150.965 836.701 151.056 837.139 151.056C837.576 151.056 837.981 150.965 838.355 150.784C838.739 150.592 839.043 150.331 839.267 150C839.491 149.669 839.603 149.296 839.603 148.88C839.603 148.464 839.491 148.091 839.267 147.76C839.043 147.429 838.739 147.173 838.355 146.992C837.981 146.8 837.576 146.704 837.139 146.704C836.701 146.704 836.291 146.8 835.907 146.992C835.533 147.173 835.235 147.429 835.011 147.76C834.787 148.091 834.675 148.464 834.675 148.88ZM835.795 155.904H843.571V154.448H835.827V153.392H844.819V156.912H837.043V158.56H842.099H845.363V159.616H842.003H835.795V155.904ZM843.571 145.12H844.819V152.352H843.571V145.12ZM853.033 154.96V156.56H851.657V154.96H853.033ZM851.657 147.872H853.033V149.472H851.657V147.872ZM858.787 156.88C860.27 155.525 861.806 154.091 863.395 152.576C864.046 151.957 864.51 151.413 864.787 150.944C865.075 150.464 865.219 149.931 865.219 149.344C865.219 148.661 865.011 148.149 864.595 147.808C864.19 147.467 863.609 147.296 862.851 147.296C862.009 147.296 861.39 147.499 860.995 147.904C860.601 148.299 860.403 148.795 860.403 149.392C860.403 149.531 860.409 149.632 860.419 149.696L859.027 149.888C859.017 149.813 859.011 149.701 859.011 149.552C859.011 148.976 859.155 148.437 859.443 147.936C859.742 147.424 860.185 147.008 860.771 146.688C861.358 146.368 862.078 146.208 862.931 146.208C864.073 146.208 864.958 146.491 865.587 147.056C866.217 147.621 866.531 148.384 866.531 149.344C866.531 150.069 866.361 150.731 866.019 151.328C865.689 151.915 865.161 152.544 864.435 153.216L863.299 154.272C862.478 155.051 861.534 155.92 860.467 156.88H866.659V158H858.787V156.88ZM871.982 158.16C871.214 158.16 870.532 157.915 869.934 157.424C869.348 156.923 868.884 156.213 868.542 155.296C868.212 154.368 868.046 153.291 868.046 152.064C868.046 150.901 868.212 149.877 868.542 148.992C868.884 148.107 869.348 147.424 869.934 146.944C870.532 146.453 871.214 146.208 871.982 146.208C872.75 146.208 873.433 146.453 874.03 146.944C874.628 147.424 875.092 148.107 875.422 148.992C875.753 149.877 875.918 150.901 875.918 152.064C875.918 153.291 875.753 154.368 875.422 155.296C875.092 156.213 874.628 156.923 874.03 157.424C873.433 157.915 872.75 158.16 871.982 158.16ZM869.358 152.032C869.358 153.621 869.582 154.853 870.03 155.728C870.478 156.592 871.129 157.024 871.982 157.024C872.846 157.024 873.497 156.592 873.934 155.728C874.382 154.864 874.606 153.632 874.606 152.032C874.606 150.517 874.388 149.36 873.95 148.56C873.513 147.749 872.857 147.344 871.982 147.344C871.108 147.344 870.452 147.749 870.014 148.56C869.577 149.36 869.358 150.517 869.358 152.032ZM877.21 156.88C878.692 155.525 880.228 154.091 881.818 152.576C882.468 151.957 882.932 151.413 883.21 150.944C883.498 150.464 883.642 149.931 883.642 149.344C883.642 148.661 883.434 148.149 883.018 147.808C882.612 147.467 882.031 147.296 881.274 147.296C880.431 147.296 879.812 147.499 879.418 147.904C879.023 148.299 878.826 148.795 878.826 149.392C878.826 149.531 878.831 149.632 878.842 149.696L877.45 149.888C877.439 149.813 877.434 149.701 877.434 149.552C877.434 148.976 877.578 148.437 877.866 147.936C878.164 147.424 878.607 147.008 879.194 146.688C879.78 146.368 880.5 146.208 881.354 146.208C882.495 146.208 883.38 146.491 884.01 147.056C884.639 147.621 884.954 148.384 884.954 149.344C884.954 150.069 884.783 150.731 884.442 151.328C884.111 151.915 883.583 152.544 882.858 153.216L881.722 154.272C880.9 155.051 879.956 155.92 878.89 156.88H885.082V158H877.21V156.88ZM886.981 152.816L887.525 146.368H893.733V147.488H888.501L888.117 151.552C888.448 151.264 888.842 151.04 889.301 150.88C889.76 150.709 890.272 150.624 890.837 150.624C891.904 150.624 892.741 150.96 893.349 151.632C893.968 152.293 894.277 153.179 894.277 154.288C894.277 155.44 893.952 156.373 893.301 157.088C892.65 157.803 891.626 158.16 890.229 158.16C889.216 158.16 888.421 157.973 887.845 157.6C887.28 157.227 886.816 156.704 886.453 156.032L887.429 155.328C887.76 155.957 888.16 156.4 888.629 156.656C889.109 156.912 889.701 157.04 890.405 157.04C891.194 157.04 891.818 156.848 892.277 156.464C892.736 156.08 892.965 155.392 892.965 154.4C892.965 152.608 892.17 151.712 890.581 151.712C889.952 151.712 889.413 151.84 888.965 152.096C888.528 152.341 888.208 152.651 888.005 153.024L886.981 152.816ZM897.232 156.88V158.48H895.856V156.88H897.232ZM902.687 158.16C901.919 158.16 901.236 157.915 900.639 157.424C900.052 156.923 899.588 156.213 899.247 155.296C898.916 154.368 898.751 153.291 898.751 152.064C898.751 150.901 898.916 149.877 899.247 148.992C899.588 148.107 900.052 147.424 900.639 146.944C901.236 146.453 901.919 146.208 902.687 146.208C903.455 146.208 904.138 146.453 904.735 146.944C905.332 147.424 905.796 148.107 906.127 148.992C906.458 149.877 906.623 150.901 906.623 152.064C906.623 153.291 906.458 154.368 906.127 155.296C905.796 156.213 905.332 156.923 904.735 157.424C904.138 157.915 903.455 158.16 902.687 158.16ZM900.063 152.032C900.063 153.621 900.287 154.853 900.735 155.728C901.183 156.592 901.834 157.024 902.687 157.024C903.551 157.024 904.202 156.592 904.639 155.728C905.087 154.864 905.311 153.632 905.311 152.032C905.311 150.517 905.092 149.36 904.655 148.56C904.218 147.749 903.562 147.344 902.687 147.344C901.812 147.344 901.156 147.749 900.719 148.56C900.282 149.36 900.063 150.517 900.063 152.032ZM907.962 152.4C907.962 150.448 908.335 148.928 909.082 147.84C909.839 146.752 910.949 146.208 912.41 146.208C913.327 146.208 914.069 146.453 914.634 146.944C915.21 147.424 915.589 148.123 915.77 149.04L914.538 149.264C914.431 148.624 914.207 148.139 913.866 147.808C913.525 147.467 913.018 147.296 912.346 147.296C911.194 147.296 910.383 147.739 909.914 148.624C909.455 149.509 909.242 150.816 909.274 152.544L909.306 152.56C909.562 151.984 909.978 151.541 910.554 151.232C911.13 150.923 911.834 150.768 912.666 150.768C913.391 150.768 914.01 150.923 914.522 151.232C915.045 151.531 915.434 151.947 915.69 152.48C915.957 153.013 916.09 153.616 916.09 154.288C916.09 155.067 915.919 155.749 915.578 156.336C915.237 156.923 914.767 157.376 914.17 157.696C913.573 158.005 912.895 158.16 912.138 158.16C910.709 158.16 909.653 157.68 908.97 156.72C908.298 155.76 907.962 154.32 907.962 152.4ZM909.546 154.496C909.546 155.392 909.797 156.048 910.298 156.464C910.799 156.869 911.455 157.072 912.266 157.072C913.066 157.072 913.685 156.843 914.122 156.384C914.559 155.925 914.778 155.237 914.778 154.32C914.778 153.499 914.591 152.885 914.218 152.48C913.845 152.064 913.258 151.856 912.458 151.856C911.551 151.856 910.837 152.08 910.314 152.528C909.802 152.976 909.546 153.632 909.546 154.496ZM918.725 156.88V158.48H917.349V156.88H918.725ZM924.276 147.856L921.236 149.552V148.24C922.089 147.739 923.183 147.115 924.516 146.368H925.524V158H924.276V147.856ZM929.407 156.88C930.89 155.525 932.426 154.091 934.015 152.576C934.666 151.957 935.13 151.413 935.407 150.944C935.695 150.464 935.839 149.931 935.839 149.344C935.839 148.661 935.631 148.149 935.215 147.808C934.81 147.467 934.229 147.296 933.471 147.296C932.629 147.296 932.01 147.499 931.615 147.904C931.221 148.299 931.023 148.795 931.023 149.392C931.023 149.531 931.029 149.632 931.039 149.696L929.647 149.888C929.637 149.813 929.631 149.701 929.631 149.552C929.631 148.976 929.775 148.437 930.063 147.936C930.362 147.424 930.805 147.008 931.391 146.688C931.978 146.368 932.698 146.208 933.551 146.208C934.693 146.208 935.578 146.491 936.207 147.056C936.837 147.621 937.151 148.384 937.151 149.344C937.151 150.069 936.981 150.731 936.639 151.328C936.309 151.915 935.781 152.544 935.055 153.216L933.919 154.272C933.098 155.051 932.154 155.92 931.087 156.88H937.279V158H929.407V156.88Z" fill="#666666"/>
<rect x="655" y="216" width="500" height="450" rx="20" fill="#F5F4F0"/>
<path d="M682.902 238.417L676.425 245.062C676.311 245.179 676.248 245.335 676.248 245.498C676.248 245.661 676.311 245.818 676.425 245.935L682.902 252.582C682.955 252.637 683.019 252.68 683.089 252.709C683.159 252.739 683.234 252.754 683.31 252.754C683.386 252.754 683.461 252.739 683.531 252.709C683.601 252.68 683.665 252.637 683.717 252.582C683.827 252.47 683.888 252.321 683.888 252.165C683.888 252.009 683.827 251.859 683.717 251.747L677.626 245.498L683.717 239.251C683.826 239.139 683.887 238.99 683.887 238.834C683.887 238.678 683.826 238.529 683.717 238.417C683.665 238.363 683.601 238.319 683.531 238.29C683.461 238.26 683.386 238.245 683.31 238.245C683.234 238.245 683.159 238.26 683.089 238.29C683.019 238.319 682.955 238.363 682.902 238.417Z" fill="#666666"/>
<path d="M703.462 235.576C704.246 235.576 704.966 235.656 705.622 235.816C706.278 235.976 706.83 236.184 707.278 236.44C707.55 236.616 707.718 236.832 707.782 237.088C707.862 237.328 707.838 237.584 707.71 237.856C707.582 238.144 707.39 238.336 707.134 238.432C706.894 238.528 706.614 238.512 706.294 238.384C705.862 238.176 705.406 238.024 704.926 237.928C704.446 237.816 703.926 237.76 703.366 237.76C700.822 237.76 699.422 239.744 699.166 243.712C699.566 243.088 700.15 242.608 700.918 242.272C701.686 241.92 702.494 241.744 703.342 241.744C704.174 241.744 704.918 241.872 705.574 242.128C706.246 242.384 706.814 242.752 707.278 243.232C707.742 243.712 708.094 244.288 708.334 244.96C708.59 245.632 708.718 246.384 708.718 247.216V247.6C708.718 248.432 708.574 249.192 708.286 249.88C708.014 250.552 707.614 251.136 707.086 251.632C706.574 252.112 705.95 252.488 705.214 252.76C704.494 253.032 703.694 253.168 702.814 253.168C700.846 253.168 699.35 252.544 698.326 251.296C697.302 250.048 696.79 248.248 696.79 245.896V245.224C696.79 243.352 696.958 241.8 697.294 240.568C697.63 239.336 698.094 238.352 698.686 237.616C699.278 236.864 699.982 236.336 700.798 236.032C701.614 235.728 702.502 235.576 703.462 235.576ZM702.862 243.856C702.27 243.856 701.75 243.944 701.302 244.12C700.854 244.296 700.478 244.536 700.174 244.84C699.87 245.144 699.638 245.504 699.478 245.92C699.334 246.32 699.262 246.744 699.262 247.192V247.384C699.262 248.488 699.574 249.368 700.198 250.024C700.822 250.664 701.678 250.984 702.766 250.984C703.886 250.984 704.766 250.688 705.406 250.096C706.046 249.504 706.366 248.64 706.366 247.504V247.336C706.366 245.016 705.198 243.856 702.862 243.856ZM718.278 234.4C720.182 234.4 721.598 234.704 722.526 235.312C723.47 235.904 723.942 236.728 723.942 237.784C723.942 238.824 723.47 239.648 722.526 240.256C721.598 240.864 720.182 241.168 718.278 241.168C716.374 241.168 714.958 240.864 714.03 240.256C713.102 239.648 712.638 238.824 712.638 237.784C712.638 236.728 713.102 235.904 714.03 235.312C714.958 234.704 716.374 234.4 718.278 234.4ZM718.278 236.224C717.11 236.224 716.254 236.36 715.71 236.632C715.166 236.904 714.894 237.288 714.894 237.784C714.894 238.264 715.166 238.64 715.71 238.912C716.254 239.184 717.11 239.32 718.278 239.32C719.462 239.32 720.326 239.184 720.87 238.912C721.414 238.64 721.686 238.264 721.686 237.784C721.686 237.288 721.414 236.904 720.87 236.632C720.326 236.36 719.462 236.224 718.278 236.224ZM728.07 234.328C728.39 234.328 728.67 234.408 728.91 234.568C729.15 234.728 729.27 234.984 729.27 235.336V246.76C729.27 247.08 729.15 247.32 728.91 247.48C728.686 247.624 728.406 247.696 728.07 247.696C727.75 247.696 727.47 247.624 727.23 247.48C727.006 247.32 726.894 247.08 726.894 246.76H722.982C722.742 246.76 722.558 246.672 722.43 246.496C722.302 246.304 722.238 246.096 722.238 245.872C722.238 245.616 722.302 245.4 722.43 245.224C722.558 245.048 722.742 244.96 722.982 244.96H726.894V235.336C726.894 234.984 727.014 234.728 727.254 234.568C727.494 234.408 727.766 234.328 728.07 234.328ZM724.71 241.864C724.982 241.832 725.198 241.896 725.358 242.056C725.518 242.216 725.606 242.424 725.622 242.68C725.654 242.952 725.606 243.192 725.478 243.4C725.366 243.608 725.174 243.728 724.902 243.76C724.07 243.872 723.174 243.968 722.214 244.048C721.27 244.112 720.278 244.168 719.238 244.216V246.496C719.238 246.816 719.118 247.048 718.878 247.192C718.654 247.336 718.374 247.408 718.038 247.408C717.718 247.408 717.438 247.336 717.198 247.192C716.974 247.048 716.862 246.816 716.862 246.496V244.288C715.182 244.336 713.51 244.36 711.846 244.36C711.574 244.36 711.366 244.272 711.222 244.096C711.094 243.904 711.03 243.672 711.03 243.4C711.03 243.144 711.094 242.928 711.222 242.752C711.366 242.56 711.574 242.464 711.846 242.464C713.878 242.464 715.99 242.432 718.182 242.368C720.39 242.304 722.566 242.136 724.71 241.864ZM727.422 248.464C728.126 248.464 728.606 248.592 728.862 248.848C729.134 249.104 729.27 249.576 729.27 250.264V251.56C729.27 252.248 729.134 252.72 728.862 252.976C728.606 253.216 728.126 253.336 727.422 253.336H717.246C717.022 253.336 716.91 253.448 716.91 253.672V254.368C716.91 254.576 717.022 254.68 717.246 254.68H729.03C729.302 254.68 729.494 254.768 729.606 254.944C729.734 255.136 729.798 255.344 729.798 255.568C729.798 255.824 729.734 256.04 729.606 256.216C729.494 256.408 729.302 256.504 729.03 256.504H716.454C715.75 256.504 715.262 256.376 714.99 256.12C714.734 255.864 714.606 255.392 714.606 254.704V253.432C714.606 252.744 714.734 252.272 714.99 252.016C715.262 251.76 715.75 251.632 716.454 251.632H726.63C726.854 251.632 726.966 251.52 726.966 251.296V250.624C726.966 250.4 726.854 250.288 726.63 250.288H715.326C715.054 250.288 714.854 250.2 714.726 250.024C714.614 249.832 714.558 249.616 714.558 249.376C714.558 249.152 714.614 248.944 714.726 248.752C714.854 248.56 715.054 248.464 715.326 248.464H727.422Z" fill="#2C6E49"/>
<path d="M744.098 238.417L750.575 245.062C750.689 245.179 750.752 245.335 750.752 245.498C750.752 245.661 750.689 245.818 750.575 245.935L744.098 252.582C744.045 252.637 743.981 252.68 743.911 252.709C743.841 252.739 743.766 252.754 743.69 252.754C743.614 252.754 743.539 252.739 743.469 252.709C743.399 252.68 743.335 252.637 743.283 252.582C743.173 252.47 743.112 252.321 743.112 252.165C743.112 252.009 743.173 251.859 743.283 251.747L749.374 245.498L743.283 239.251C743.174 239.139 743.113 238.99 743.113 238.834C743.113 238.678 743.174 238.529 743.283 238.417C743.335 238.363 743.399 238.319 743.469 238.29C743.539 238.26 743.614 238.245 743.69 238.245C743.766 238.245 743.841 238.26 743.911 238.29C743.981 238.319 744.045 238.363 744.098 238.417Z" fill="#666666"/>
<path d="M698.263 281.482C698.947 281.482 699.553 281.578 700.081 281.77C700.609 281.95 701.047 282.208 701.395 282.544C701.743 282.868 702.007 283.258 702.187 283.714C702.367 284.158 702.457 284.644 702.457 285.172C702.457 285.7 702.367 286.192 702.187 286.648C702.007 287.104 701.743 287.5 701.395 287.836C701.047 288.16 700.609 288.418 700.081 288.61C699.553 288.79 698.947 288.88 698.263 288.88C697.579 288.88 696.973 288.79 696.445 288.61C695.917 288.418 695.479 288.16 695.131 287.836C694.783 287.5 694.519 287.104 694.339 286.648C694.159 286.192 694.069 285.7 694.069 285.172C694.069 284.644 694.159 284.158 694.339 283.714C694.519 283.258 694.783 282.868 695.131 282.544C695.479 282.208 695.917 281.95 696.445 281.77C696.973 281.578 697.579 281.482 698.263 281.482ZM698.263 282.958C697.831 282.958 697.459 283.018 697.147 283.138C696.835 283.258 696.577 283.42 696.373 283.624C696.181 283.828 696.037 284.062 695.941 284.326C695.845 284.59 695.797 284.872 695.797 285.172C695.797 285.472 695.845 285.76 695.941 286.036C696.037 286.3 696.181 286.534 696.373 286.738C696.577 286.942 696.835 287.104 697.147 287.224C697.459 287.344 697.831 287.404 698.263 287.404C698.695 287.404 699.067 287.344 699.379 287.224C699.691 287.104 699.943 286.942 700.135 286.738C700.339 286.534 700.489 286.3 700.585 286.036C700.681 285.76 700.729 285.472 700.729 285.172C700.729 284.872 700.681 284.59 700.585 284.326C700.489 284.062 700.339 283.828 700.135 283.624C699.943 283.42 699.691 283.258 699.379 283.138C699.067 283.018 698.695 282.958 698.263 282.958ZM706.111 280.996C706.351 280.996 706.561 281.056 706.741 281.176C706.921 281.296 707.011 281.488 707.011 281.752V288.736C707.011 289 706.921 289.192 706.741 289.312C706.561 289.432 706.351 289.492 706.111 289.492C705.871 289.492 705.661 289.432 705.481 289.312C705.301 289.192 705.211 289 705.211 288.736V281.752C705.211 281.488 705.301 281.296 705.481 281.176C705.661 281.056 705.871 280.996 706.111 280.996ZM705.625 290.266C706.153 290.266 706.513 290.362 706.705 290.554C706.909 290.746 707.011 291.1 707.011 291.616V293.272C707.011 293.788 706.909 294.142 706.705 294.334C706.513 294.526 706.153 294.622 705.625 294.622H698.659C698.527 294.622 698.431 294.652 698.371 294.712C698.311 294.76 698.281 294.856 698.281 295V295.774C698.281 296.026 698.407 296.152 698.659 296.152H706.813C707.017 296.152 707.167 296.224 707.263 296.368C707.359 296.512 707.407 296.68 707.407 296.872C707.407 297.064 707.359 297.232 707.263 297.376C707.167 297.52 707.017 297.592 706.813 297.592H697.921C697.393 297.592 697.027 297.496 696.823 297.304C696.631 297.112 696.535 296.758 696.535 296.242V294.586C696.535 294.07 696.631 293.716 696.823 293.524C697.027 293.332 697.393 293.236 697.921 293.236H704.869C705.013 293.236 705.109 293.212 705.157 293.164C705.217 293.104 705.247 293.002 705.247 292.858V292.084C705.247 291.952 705.217 291.862 705.157 291.814C705.109 291.754 705.013 291.724 704.869 291.724H697.093C696.889 291.724 696.739 291.652 696.643 291.508C696.547 291.364 696.499 291.19 696.499 290.986C696.499 290.794 696.547 290.626 696.643 290.482C696.739 290.338 696.889 290.266 697.093 290.266H705.625Z" fill="#E4585A"/>
<path d="M767.091 281.05C768.519 281.05 769.581 281.278 770.277 281.734C770.985 282.178 771.339 282.796 771.339 283.588C771.339 284.368 770.985 284.986 770.277 285.442C769.581 285.898 768.519 286.126 767.091 286.126C765.663 286.126 764.601 285.898 763.905 285.442C763.209 284.986 762.861 284.368 762.861 283.588C762.861 282.796 763.209 282.178 763.905 281.734C764.601 281.278 765.663 281.05 767.091 281.05ZM767.091 282.418C766.215 282.418 765.573 282.52 765.165 282.724C764.757 282.928 764.553 283.216 764.553 283.588C764.553 283.948 764.757 284.23 765.165 284.434C765.573 284.638 766.215 284.74 767.091 284.74C767.979 284.74 768.627 284.638 769.035 284.434C769.443 284.23 769.647 283.948 769.647 283.588C769.647 283.216 769.443 282.928 769.035 282.724C768.627 282.52 767.979 282.418 767.091 282.418ZM774.435 280.996C774.675 280.996 774.885 281.056 775.065 281.176C775.245 281.296 775.335 281.488 775.335 281.752V290.32C775.335 290.56 775.245 290.74 775.065 290.86C774.897 290.968 774.687 291.022 774.435 291.022C774.195 291.022 773.985 290.968 773.805 290.86C773.637 290.74 773.553 290.56 773.553 290.32H770.619C770.439 290.32 770.301 290.254 770.205 290.122C770.109 289.978 770.061 289.822 770.061 289.654C770.061 289.462 770.109 289.3 770.205 289.168C770.301 289.036 770.439 288.97 770.619 288.97H773.553V281.752C773.553 281.488 773.643 281.296 773.823 281.176C774.003 281.056 774.207 280.996 774.435 280.996ZM771.915 286.648C772.119 286.624 772.281 286.672 772.401 286.792C772.521 286.912 772.587 287.068 772.599 287.26C772.623 287.464 772.587 287.644 772.491 287.8C772.407 287.956 772.263 288.046 772.059 288.07C771.435 288.154 770.763 288.226 770.043 288.286C769.335 288.334 768.591 288.376 767.811 288.412V290.122C767.811 290.362 767.721 290.536 767.541 290.644C767.373 290.752 767.163 290.806 766.911 290.806C766.671 290.806 766.461 290.752 766.281 290.644C766.113 290.536 766.029 290.362 766.029 290.122V288.466C764.769 288.502 763.515 288.52 762.267 288.52C762.063 288.52 761.907 288.454 761.799 288.322C761.703 288.178 761.655 288.004 761.655 287.8C761.655 287.608 761.703 287.446 761.799 287.314C761.907 287.17 762.063 287.098 762.267 287.098C763.791 287.098 765.375 287.074 767.019 287.026C768.675 286.978 770.307 286.852 771.915 286.648ZM773.949 291.598C774.477 291.598 774.837 291.694 775.029 291.886C775.233 292.078 775.335 292.432 775.335 292.948V293.92C775.335 294.436 775.233 294.79 775.029 294.982C774.837 295.162 774.477 295.252 773.949 295.252H766.317C766.149 295.252 766.065 295.336 766.065 295.504V296.026C766.065 296.182 766.149 296.26 766.317 296.26H775.155C775.359 296.26 775.503 296.326 775.587 296.458C775.683 296.602 775.731 296.758 775.731 296.926C775.731 297.118 775.683 297.28 775.587 297.412C775.503 297.556 775.359 297.628 775.155 297.628H765.723C765.195 297.628 764.829 297.532 764.625 297.34C764.433 297.148 764.337 296.794 764.337 296.278V295.324C764.337 294.808 764.433 294.454 764.625 294.262C764.829 294.07 765.195 293.974 765.723 293.974H773.355C773.523 293.974 773.607 293.89 773.607 293.722V293.218C773.607 293.05 773.523 292.966 773.355 292.966H764.877C764.673 292.966 764.523 292.9 764.427 292.768C764.343 292.624 764.301 292.462 764.301 292.282C764.301 292.114 764.343 291.958 764.427 291.814C764.523 291.67 764.673 291.598 764.877 291.598H773.949Z" fill="#333333"/>
<rect x="671" y="309" width="60" height="60" rx="5" fill="white"/>
<path d="M683.256 318.124L680.596 319.608V318.46C681.343 318.021 682.299 317.475 683.466 316.822H684.348V327H683.256V318.124Z" fill="#E4585A"/>
<rect x="739" y="309" width="60" height="60" rx="5" fill="white"/>
<path d="M747.686 326.02C748.983 324.835 750.327 323.579 751.718 322.254C752.287 321.713 752.693 321.237 752.936 320.826C753.188 320.406 753.314 319.939 753.314 319.426C753.314 318.829 753.132 318.381 752.768 318.082C752.413 317.783 751.905 317.634 751.242 317.634C750.505 317.634 749.963 317.811 749.618 318.166C749.273 318.511 749.1 318.945 749.1 319.468C749.1 319.589 749.105 319.678 749.114 319.734L747.896 319.902C747.887 319.837 747.882 319.739 747.882 319.608C747.882 319.104 748.008 318.633 748.26 318.194C748.521 317.746 748.909 317.382 749.422 317.102C749.935 316.822 750.565 316.682 751.312 316.682C752.311 316.682 753.085 316.929 753.636 317.424C754.187 317.919 754.462 318.586 754.462 319.426C754.462 320.061 754.313 320.639 754.014 321.162C753.725 321.675 753.263 322.226 752.628 322.814L751.634 323.738C750.915 324.419 750.089 325.18 749.156 326.02H754.574V327H747.686V326.02Z" fill="#666666"/>
<rect x="807" y="309" width="60" height="60" rx="5" fill="white"/>
<rect x="671" y="377" width="60" height="60" rx="5" fill="white"/>
<path d="M683.172 395.14C682.388 395.14 681.739 395.014 681.226 394.762C680.713 394.501 680.335 394.16 680.092 393.74C679.849 393.311 679.728 392.844 679.728 392.34C679.728 391.696 679.896 391.145 680.232 390.688C680.577 390.231 681.039 389.895 681.618 389.68V389.652C680.545 389.232 680.008 388.485 680.008 387.412C680.008 386.871 680.139 386.395 680.4 385.984C680.661 385.573 681.03 385.256 681.506 385.032C681.982 384.799 682.537 384.682 683.172 384.682C683.807 384.682 684.362 384.799 684.838 385.032C685.314 385.256 685.683 385.573 685.944 385.984C686.205 386.395 686.336 386.871 686.336 387.412C686.336 388.485 685.799 389.232 684.726 389.652V389.68C685.305 389.895 685.762 390.231 686.098 390.688C686.443 391.145 686.616 391.696 686.616 392.34C686.616 392.844 686.495 393.311 686.252 393.74C686.009 394.16 685.631 394.501 685.118 394.762C684.605 395.014 683.956 395.14 683.172 395.14ZM680.792 392.228C680.792 392.928 681.016 393.432 681.464 393.74C681.921 394.048 682.491 394.202 683.172 394.202C683.853 394.202 684.418 394.048 684.866 393.74C685.323 393.432 685.552 392.928 685.552 392.228C685.552 391.612 685.351 391.131 684.95 390.786C684.558 390.441 683.961 390.268 683.158 390.268C682.365 390.268 681.772 390.445 681.38 390.8C680.988 391.145 680.792 391.621 680.792 392.228ZM681.03 387.398C681.03 388.023 681.226 388.471 681.618 388.742C682.01 389.013 682.528 389.148 683.172 389.148C683.816 389.148 684.334 389.013 684.726 388.742C685.118 388.471 685.314 388.023 685.314 387.398C685.314 386.782 685.113 386.329 684.712 386.04C684.32 385.741 683.807 385.592 683.172 385.592C682.537 385.592 682.019 385.741 681.618 386.04C681.226 386.329 681.03 386.782 681.03 387.398Z" fill="#E4585A"/>
<rect x="739" y="377" width="60" height="60" rx="5" fill="white"/>
<path d="M750.766 395.14C749.935 395.14 749.263 394.93 748.75 394.51C748.246 394.081 747.915 393.465 747.756 392.662L748.834 392.466C748.927 393.026 749.123 393.455 749.422 393.754C749.73 394.043 750.197 394.188 750.822 394.188C751.522 394.188 752.068 394.011 752.46 393.656C752.861 393.301 753.132 392.793 753.272 392.13C753.421 391.467 753.487 390.623 753.468 389.596L753.44 389.582C753.216 390.086 752.852 390.473 752.348 390.744C751.844 391.015 751.228 391.15 750.5 391.15C749.511 391.15 748.764 390.865 748.26 390.296C747.756 389.727 747.504 388.985 747.504 388.07C747.504 387.389 747.653 386.791 747.952 386.278C748.251 385.765 748.661 385.373 749.184 385.102C749.707 384.822 750.299 384.682 750.962 384.682C752.213 384.682 753.132 385.102 753.72 385.942C754.317 386.782 754.616 388.042 754.616 389.722C754.616 391.439 754.299 392.774 753.664 393.726C753.029 394.669 752.063 395.14 750.766 395.14ZM748.652 388.042C748.652 388.77 748.815 389.316 749.142 389.68C749.469 390.035 749.982 390.212 750.682 390.212C751.475 390.212 752.096 390.016 752.544 389.624C753.001 389.223 753.23 388.644 753.23 387.888C753.23 387.104 753.011 386.535 752.572 386.18C752.133 385.816 751.559 385.634 750.85 385.634C750.15 385.634 749.609 385.835 749.226 386.236C748.843 386.637 748.652 387.239 748.652 388.042Z" fill="#666666"/>
<rect x="807" y="377" width="60" height="60" rx="5" fill="white"/>
<rect x="671" y="445" width="60" height="60" rx="5" fill="white"/>
<path d="M683.256 454.124L680.596 455.608V454.46C681.343 454.021 682.299 453.475 683.466 452.822H684.348V463H683.256V454.124ZM688.516 458.464L688.992 452.822H694.424V453.802H689.846L689.51 457.358C689.799 457.106 690.145 456.91 690.546 456.77C690.947 456.621 691.395 456.546 691.89 456.546C692.823 456.546 693.556 456.84 694.088 457.428C694.629 458.007 694.9 458.781 694.9 459.752C694.9 460.76 694.615 461.577 694.046 462.202C693.477 462.827 692.581 463.14 691.358 463.14C690.471 463.14 689.776 462.977 689.272 462.65C688.777 462.323 688.371 461.866 688.054 461.278L688.908 460.662C689.197 461.213 689.547 461.6 689.958 461.824C690.378 462.048 690.896 462.16 691.512 462.16C692.203 462.16 692.749 461.992 693.15 461.656C693.551 461.32 693.752 460.718 693.752 459.85C693.752 458.282 693.057 457.498 691.666 457.498C691.115 457.498 690.644 457.61 690.252 457.834C689.869 458.049 689.589 458.319 689.412 458.646L688.516 458.464Z" fill="#E4585A"/>
<rect x="739" y="445" width="60" height="60" rx="5" fill="white"/>
<path d="M751.256 454.124L748.596 455.608V454.46C749.343 454.021 750.299 453.475 751.466 452.822H752.348V463H751.256V454.124ZM756.068 458.1C756.068 456.392 756.395 455.062 757.048 454.11C757.711 453.158 758.681 452.682 759.96 452.682C760.763 452.682 761.411 452.897 761.906 453.326C762.41 453.746 762.741 454.357 762.9 455.16L761.822 455.356C761.729 454.796 761.533 454.371 761.234 454.082C760.935 453.783 760.492 453.634 759.904 453.634C758.896 453.634 758.187 454.021 757.776 454.796C757.375 455.571 757.188 456.714 757.216 458.226L757.244 458.24C757.468 457.736 757.832 457.349 758.336 457.078C758.84 456.807 759.456 456.672 760.184 456.672C760.819 456.672 761.36 456.807 761.808 457.078C762.265 457.339 762.606 457.703 762.83 458.17C763.063 458.637 763.18 459.164 763.18 459.752C763.18 460.433 763.031 461.031 762.732 461.544C762.433 462.057 762.023 462.454 761.5 462.734C760.977 463.005 760.385 463.14 759.722 463.14C758.471 463.14 757.547 462.72 756.95 461.88C756.362 461.04 756.068 459.78 756.068 458.1ZM757.454 459.934C757.454 460.718 757.673 461.292 758.112 461.656C758.551 462.011 759.125 462.188 759.834 462.188C760.534 462.188 761.075 461.987 761.458 461.586C761.841 461.185 762.032 460.583 762.032 459.78C762.032 459.061 761.869 458.525 761.542 458.17C761.215 457.806 760.702 457.624 760.002 457.624C759.209 457.624 758.583 457.82 758.126 458.212C757.678 458.604 757.454 459.178 757.454 459.934Z" fill="#666666"/>
<rect x="807" y="445" width="60" height="60" rx="5" fill="white"/>
<rect x="671" y="513" width="60" height="60" rx="5" fill="white"/>
<path d="M679.686 530.02C680.983 528.835 682.327 527.579 683.718 526.254C684.287 525.713 684.693 525.237 684.936 524.826C685.188 524.406 685.314 523.939 685.314 523.426C685.314 522.829 685.132 522.381 684.768 522.082C684.413 521.783 683.905 521.634 683.242 521.634C682.505 521.634 681.963 521.811 681.618 522.166C681.273 522.511 681.1 522.945 681.1 523.468C681.1 523.589 681.105 523.678 681.114 523.734L679.896 523.902C679.887 523.837 679.882 523.739 679.882 523.608C679.882 523.104 680.008 522.633 680.26 522.194C680.521 521.746 680.909 521.382 681.422 521.102C681.935 520.822 682.565 520.682 683.312 520.682C684.311 520.682 685.085 520.929 685.636 521.424C686.187 521.919 686.462 522.586 686.462 523.426C686.462 524.061 686.313 524.639 686.014 525.162C685.725 525.675 685.263 526.226 684.628 526.814L683.634 527.738C682.915 528.419 682.089 529.18 681.156 530.02H686.574V531H679.686V530.02ZM688.026 530.02C689.323 528.835 690.667 527.579 692.058 526.254C692.627 525.713 693.033 525.237 693.276 524.826C693.528 524.406 693.654 523.939 693.654 523.426C693.654 522.829 693.472 522.381 693.108 522.082C692.753 521.783 692.245 521.634 691.582 521.634C690.845 521.634 690.303 521.811 689.958 522.166C689.613 522.511 689.44 522.945 689.44 523.468C689.44 523.589 689.445 523.678 689.454 523.734L688.236 523.902C688.227 523.837 688.222 523.739 688.222 523.608C688.222 523.104 688.348 522.633 688.6 522.194C688.861 521.746 689.249 521.382 689.762 521.102C690.275 520.822 690.905 520.682 691.652 520.682C692.651 520.682 693.425 520.929 693.976 521.424C694.527 521.919 694.802 522.586 694.802 523.426C694.802 524.061 694.653 524.639 694.354 525.162C694.065 525.675 693.603 526.226 692.968 526.814L691.974 527.738C691.255 528.419 690.429 529.18 689.496 530.02H694.914V531H688.026V530.02Z" fill="#E4585A"/>
<rect x="739" y="513" width="60" height="60" rx="5" fill="white"/>
<path d="M747.686 530.02C748.983 528.835 750.327 527.579 751.718 526.254C752.287 525.713 752.693 525.237 752.936 524.826C753.188 524.406 753.314 523.939 753.314 523.426C753.314 522.829 753.132 522.381 752.768 522.082C752.413 521.783 751.905 521.634 751.242 521.634C750.505 521.634 749.963 521.811 749.618 522.166C749.273 522.511 749.1 522.945 749.1 523.468C749.1 523.589 749.105 523.678 749.114 523.734L747.896 523.902C747.887 523.837 747.882 523.739 747.882 523.608C747.882 523.104 748.008 522.633 748.26 522.194C748.521 521.746 748.909 521.382 749.422 521.102C749.935 520.822 750.565 520.682 751.312 520.682C752.311 520.682 753.085 520.929 753.636 521.424C754.187 521.919 754.462 522.586 754.462 523.426C754.462 524.061 754.313 524.639 754.014 525.162C753.725 525.675 753.263 526.226 752.628 526.814L751.634 527.738C750.915 528.419 750.089 529.18 749.156 530.02H754.574V531H747.686V530.02ZM759.47 531.14C758.555 531.14 757.846 530.981 757.342 530.664C756.838 530.347 756.423 529.885 756.096 529.278L756.95 528.662C757.239 529.213 757.594 529.605 758.014 529.838C758.443 530.062 758.957 530.174 759.554 530.174C760.226 530.174 760.763 530.034 761.164 529.754C761.565 529.465 761.766 528.951 761.766 528.214C761.766 527.542 761.57 527.052 761.178 526.744C760.786 526.427 760.161 526.268 759.302 526.268H758.504V525.344H759.064C759.783 525.344 760.366 525.153 760.814 524.77C761.271 524.387 761.5 523.874 761.5 523.23C761.5 522.707 761.337 522.315 761.01 522.054C760.693 521.783 760.165 521.648 759.428 521.648C758.793 521.648 758.303 521.807 757.958 522.124C757.622 522.432 757.473 522.885 757.51 523.482L756.376 523.622L756.362 523.37C756.362 522.866 756.479 522.413 756.712 522.012C756.955 521.601 757.319 521.279 757.804 521.046C758.299 520.803 758.901 520.682 759.61 520.682C760.571 520.682 761.313 520.911 761.836 521.368C762.368 521.825 762.634 522.427 762.634 523.174C762.634 523.734 762.494 524.224 762.214 524.644C761.934 525.055 761.523 525.377 760.982 525.61C761.579 525.731 762.051 526.021 762.396 526.478C762.741 526.935 762.914 527.481 762.914 528.116C762.914 528.657 762.793 529.157 762.55 529.614C762.317 530.062 761.943 530.431 761.43 530.72C760.917 531 760.263 531.14 759.47 531.14Z" fill="#666666"/>
<rect x="807" y="513" width="60" height="60" rx="5" fill="white"/>
<rect x="671" y="581" width="60" height="60" rx="5" fill="white"/>
<path d="M679.686 598.02C680.983 596.835 682.327 595.579 683.718 594.254C684.287 593.713 684.693 593.237 684.936 592.826C685.188 592.406 685.314 591.939 685.314 591.426C685.314 590.829 685.132 590.381 684.768 590.082C684.413 589.783 683.905 589.634 683.242 589.634C682.505 589.634 681.963 589.811 681.618 590.166C681.273 590.511 681.1 590.945 681.1 591.468C681.1 591.589 681.105 591.678 681.114 591.734L679.896 591.902C679.887 591.837 679.882 591.739 679.882 591.608C679.882 591.104 680.008 590.633 680.26 590.194C680.521 589.746 680.909 589.382 681.422 589.102C681.935 588.822 682.565 588.682 683.312 588.682C684.311 588.682 685.085 588.929 685.636 589.424C686.187 589.919 686.462 590.586 686.462 591.426C686.462 592.061 686.313 592.639 686.014 593.162C685.725 593.675 685.263 594.226 684.628 594.814L683.634 595.738C682.915 596.419 682.089 597.18 681.156 598.02H686.574V599H679.686V598.02ZM691.106 599.14C690.275 599.14 689.603 598.93 689.09 598.51C688.586 598.081 688.255 597.465 688.096 596.662L689.174 596.466C689.267 597.026 689.463 597.455 689.762 597.754C690.07 598.043 690.537 598.188 691.162 598.188C691.862 598.188 692.408 598.011 692.8 597.656C693.201 597.301 693.472 596.793 693.612 596.13C693.761 595.467 693.827 594.623 693.808 593.596L693.78 593.582C693.556 594.086 693.192 594.473 692.688 594.744C692.184 595.015 691.568 595.15 690.84 595.15C689.851 595.15 689.104 594.865 688.6 594.296C688.096 593.727 687.844 592.985 687.844 592.07C687.844 591.389 687.993 590.791 688.292 590.278C688.591 589.765 689.001 589.373 689.524 589.102C690.047 588.822 690.639 588.682 691.302 588.682C692.553 588.682 693.472 589.102 694.06 589.942C694.657 590.782 694.956 592.042 694.956 593.722C694.956 595.439 694.639 596.774 694.004 597.726C693.369 598.669 692.403 599.14 691.106 599.14ZM688.992 592.042C688.992 592.77 689.155 593.316 689.482 593.68C689.809 594.035 690.322 594.212 691.022 594.212C691.815 594.212 692.436 594.016 692.884 593.624C693.341 593.223 693.57 592.644 693.57 591.888C693.57 591.104 693.351 590.535 692.912 590.18C692.473 589.816 691.899 589.634 691.19 589.634C690.49 589.634 689.949 589.835 689.566 590.236C689.183 590.637 688.992 591.239 688.992 592.042Z" fill="#E4585A"/>
<rect x="739" y="581" width="60" height="60" rx="5" fill="white"/>
<path d="M751.13 599.14C750.215 599.14 749.506 598.981 749.002 598.664C748.498 598.347 748.083 597.885 747.756 597.278L748.61 596.662C748.899 597.213 749.254 597.605 749.674 597.838C750.103 598.062 750.617 598.174 751.214 598.174C751.886 598.174 752.423 598.034 752.824 597.754C753.225 597.465 753.426 596.951 753.426 596.214C753.426 595.542 753.23 595.052 752.838 594.744C752.446 594.427 751.821 594.268 750.962 594.268H750.164V593.344H750.724C751.443 593.344 752.026 593.153 752.474 592.77C752.931 592.387 753.16 591.874 753.16 591.23C753.16 590.707 752.997 590.315 752.67 590.054C752.353 589.783 751.825 589.648 751.088 589.648C750.453 589.648 749.963 589.807 749.618 590.124C749.282 590.432 749.133 590.885 749.17 591.482L748.036 591.622L748.022 591.37C748.022 590.866 748.139 590.413 748.372 590.012C748.615 589.601 748.979 589.279 749.464 589.046C749.959 588.803 750.561 588.682 751.27 588.682C752.231 588.682 752.973 588.911 753.496 589.368C754.028 589.825 754.294 590.427 754.294 591.174C754.294 591.734 754.154 592.224 753.874 592.644C753.594 593.055 753.183 593.377 752.642 593.61C753.239 593.731 753.711 594.021 754.056 594.478C754.401 594.935 754.574 595.481 754.574 596.116C754.574 596.657 754.453 597.157 754.21 597.614C753.977 598.062 753.603 598.431 753.09 598.72C752.577 599 751.923 599.14 751.13 599.14ZM759.512 599.14C758.84 599.14 758.243 598.925 757.72 598.496C757.207 598.057 756.801 597.437 756.502 596.634C756.213 595.822 756.068 594.879 756.068 593.806C756.068 592.789 756.213 591.893 756.502 591.118C756.801 590.343 757.207 589.746 757.72 589.326C758.243 588.897 758.84 588.682 759.512 588.682C760.184 588.682 760.781 588.897 761.304 589.326C761.827 589.746 762.233 590.343 762.522 591.118C762.811 591.893 762.956 592.789 762.956 593.806C762.956 594.879 762.811 595.822 762.522 596.634C762.233 597.437 761.827 598.057 761.304 598.496C760.781 598.925 760.184 599.14 759.512 599.14ZM757.216 593.778C757.216 595.169 757.412 596.247 757.804 597.012C758.196 597.768 758.765 598.146 759.512 598.146C760.268 598.146 760.837 597.768 761.22 597.012C761.612 596.256 761.808 595.178 761.808 593.778C761.808 592.453 761.617 591.44 761.234 590.74C760.851 590.031 760.277 589.676 759.512 589.676C758.747 589.676 758.173 590.031 757.79 590.74C757.407 591.44 757.216 592.453 757.216 593.778Z" fill="#666666"/>
<rect x="807" y="581" width="60" height="60" rx="5" fill="white"/>
<rect x="560" y="52" width="80" height="14" rx="7" fill="#CCCCCC"/>
<rect x="560" y="126" width="80" height="14" rx="7" fill="#CCCCCC"/>
<rect x="560" y="200" width="80" height="14" rx="7" fill="#CCCCCC"/>
<rect x="560" y="274" width="80" height="14" rx="7" fill="#CCCCCC"/>
<rect x="560" y="348" width="80" height="14" rx="7" fill="#CCCCCC"/>
<rect x="560" y="422" width="80" height="14" rx="7" fill="#CCCCCC"/>
<rect x="560" y="496" width="80" height="14" rx="7" fill="#CCCCCC"/>
<rect x="560" y="570" width="80" height="14" rx="7" fill="#CCCCCC"/>
<rect x="560" y="644" width="80" height="14" rx="7" fill="#CCCCCC"/>
</svg>
